<?xml version="1.0" encoding="UTF-8"?>
<svg version="1.1" xmlns="http://www.w3.org/2000/svg" width="512" height="512">
<path d="M0 0 C18.25562738 10.87006461 36.87436303 21.42394691 57.03710938 28.33544922 C58.1225 28.71314453 59.20789063 29.09083984 60.32617188 29.47998047 C65.55642602 30.68569169 70.7515439 30.90062158 76.09960938 31.21044922 C108.90793023 33.46800816 147.65106066 41.80073206 173.03710938 64.33544922 C174.9012708 69.57840324 173.15394424 72.42439233 171.03710938 77.33544922 C170.15024564 83.14933373 171.107675 85.61587751 174.16210938 90.58544922 C178.4745914 98.63474236 176.61162231 105.92909609 175.36425781 114.58447266 C174.69256854 120.23267763 174.64660749 125.93706828 174.55639648 131.62036133 C174.51784546 132.87345093 174.51784546 132.87345093 174.47851562 134.15185547 C174.46506104 134.88863525 174.45160645 135.62541504 174.43774414 136.38452148 C173.92771141 138.86817267 172.98418305 139.76081748 171.03710938 141.33544922 C159.96903875 145.5997708 146.04525554 144.53599908 134.41210938 144.58544922 C132.53458984 144.61638672 132.53458984 144.61638672 130.61914062 144.64794922 C128.82669922 144.65568359 128.82669922 144.65568359 126.99804688 144.66357422 C125.38615479 144.67759277 125.38615479 144.67759277 123.74169922 144.69189453 C121.03710938 144.33544922 121.03710938 144.33544922 119.1784668 142.94580078 C117.63784109 140.77211797 117.79905811 139.47299989 117.97460938 136.83544922 C118.27030891 124.85092109 115.03460892 114.55898171 106.91210938 105.52294922 C98.24226867 97.49173517 87.91139926 94.94169232 76.45117188 95.05810547 C67.05968391 95.82102955 57.7790712 100.32886899 51.28710938 107.18310547 C43.38507935 117.11990822 41.7621223 126.59928413 42.33984375 138.91748047 C42.35724609 139.69736328 42.37464844 140.47724609 42.39257812 141.28076172 C42.41989014 141.9873291 42.44720215 142.69389648 42.4753418 143.421875 C42.03710938 145.33544922 42.03710938 145.33544922 40.60518646 146.93123817 C36.66993088 149.08301523 32.92628395 148.74868311 28.50964355 148.71640015 C27.5330791 148.72108012 26.55651465 148.72576009 25.55035734 148.73058188 C22.26911161 148.74257398 18.98828028 148.73305803 15.70703125 148.72363281 C13.35827897 148.72769663 11.00952859 148.73303744 8.66078186 148.73956299 C2.2745427 148.75326487 -4.11155143 148.74792602 -10.4977932 148.73842573 C-16.49689319 148.73161201 -22.49597974 148.73680638 -28.49507934 148.74120732 C-41.10095637 148.74976406 -53.70676798 148.73992264 -66.31263429 148.72380622 C-77.13146995 148.71040276 -87.95020905 148.71273077 -98.76904297 148.7265625 C-111.32949206 148.74261331 -123.88988379 148.74894006 -136.4503417 148.73972571 C-143.10038203 148.73497986 -149.75036848 148.73444245 -156.40040588 148.74433517 C-162.65156761 148.75298451 -168.90254651 148.74702002 -175.15368843 148.7296524 C-177.45151528 148.7256767 -179.74935746 148.72684003 -182.04717827 148.7334404 C-185.17680337 148.74160303 -188.30583764 148.73139801 -191.4354248 148.71640015 C-192.3509816 148.72309231 -193.2665384 148.72978448 -194.20983934 148.73667943 C-200.33038212 148.6795424 -200.33038212 148.6795424 -203.53394318 146.93676186 C-204.96289062 145.33544922 -204.96289062 145.33544922 -205.35351562 143.33349609 C-205.30710937 142.58132813 -205.26070313 141.82916016 -205.21289062 141.05419922 C-205.17881104 140.21735596 -205.14473145 139.3805127 -205.10961914 138.51831055 C-205.06119873 137.63296631 -205.01277832 136.74762207 -204.96289062 135.83544922 C-204.67156112 124.52400138 -206.48041925 116.25702497 -213.91992188 107.40576172 C-222.03966769 99.17733861 -230.86206953 95.33564442 -242.33789062 94.89794922 C-253.10807701 95.2020486 -262.32155203 98.65011059 -269.96289062 106.33544922 C-278.3536171 116.21458916 -280.38602302 124.46650632 -279.77539062 137.17529297 C-279.86820312 138.73957031 -279.86820312 138.73957031 -279.96289062 140.33544922 C-286.54405169 144.72288993 -296.67942281 142.44209135 -304.12695312 141.01513672 C-314.58195868 138.50939159 -314.58195868 138.50939159 -317.14648438 134.47216797 C-317.95378753 132.42107718 -318.5130683 130.49218662 -318.96289062 128.33544922 C-319.13272461 127.57756104 -319.30255859 126.81967285 -319.47753906 126.03881836 C-320.32973977 121.292129 -320.18933736 116.52120359 -320.21289062 111.71044922 C-320.23351562 110.68048828 -320.25414062 109.65052734 -320.27539062 108.58935547 C-320.31580086 100.55782181 -320.14830346 91.88225411 -314.55273438 85.65185547 C-313.67746094 85.07306641 -312.8021875 84.49427734 -311.90039062 83.89794922 C-307.44496766 80.9207749 -307.44496766 80.9207749 -304.96289062 76.33544922 C-304.75766296 72.16248676 -304.91160613 68.64828461 -305.58789062 64.52294922 C-305.96289062 61.33544922 -305.96289062 61.33544922 -303.96289062 58.33544922 C-303.84922404 56.0245899 -303.84922404 56.0245899 -304.11914062 53.46826172 C-305.23646262 35.35124996 -305.23646262 35.35124996 -299.96289062 28.46044922 C-298.56655478 26.90768485 -297.1302142 25.43028107 -295.63183594 23.97558594 C-293.78118328 22.15687843 -292.04182923 20.26136995 -290.29882812 18.33935547 C-284.833129 12.35714778 -279.2496801 6.52586388 -273.37695312 0.94091797 C-272.63783691 0.23040283 -271.8987207 -0.4801123 -271.13720703 -1.2121582 C-269.72015551 -2.56604226 -268.28806123 -3.90440741 -266.83935547 -5.22436523 C-262.75970898 -9.01284976 -262.75970898 -9.01284976 -261.77539062 -14.37548828 C-261.83726562 -15.46087891 -261.89914062 -16.54626953 -261.96289062 -17.66455078 C-259.93032369 -20.343125 -258.61711611 -21.50302635 -255.32958984 -22.31469727 C-254.31912598 -22.38760986 -253.30866211 -22.46052246 -252.26757812 -22.53564453 C-251.09775391 -22.63240479 -249.92792969 -22.72916504 -248.72265625 -22.82885742 C-246.79969727 -22.96408813 -246.79969727 -22.96408813 -244.83789062 -23.10205078 C-242.03230769 -23.32874263 -239.22808763 -23.57053125 -236.42382812 -23.81298828 C-235.30309906 -23.90777214 -235.30309906 -23.90777214 -234.159729 -24.00447083 C-225.48150639 -24.75689784 -216.84337079 -25.8270714 -208.1987915 -26.89077759 C-183.6721042 -29.90538514 -183.6721042 -29.90538514 -171.96289062 -30.91455078 C-171.17849609 -30.98230713 -170.39410156 -31.05006348 -169.5859375 -31.11987305 C-167.04598825 -31.32357354 -164.50557547 -31.49817464 -161.96289062 -31.66455078 C-160.69968994 -31.74922607 -159.43648926 -31.83390137 -158.13500977 -31.92114258 C-99.48551806 -35.63967603 -50.96904781 -30.34975119 0 0 Z M-205.62634277 -15.93530273 C-208.80282399 -15.5672219 -211.98061072 -15.21110458 -215.15838623 -14.85440063 C-218.23644265 -14.50707208 -221.31354031 -14.15181033 -224.39038086 -13.79388428 C-225.84371917 -13.62567906 -227.29733204 -13.45982769 -228.7512207 -13.29644775 C-230.75238002 -13.07033563 -232.75221309 -12.83257648 -234.75195312 -12.59423828 C-236.44892334 -12.39677002 -236.44892334 -12.39677002 -238.18017578 -12.1953125 C-241.16032472 -11.81386272 -241.16032472 -11.81386272 -243.96289062 -9.66455078 C-242.95226562 -8.96330078 -241.94164062 -8.26205078 -240.90039062 -7.53955078 C-239.17773438 -6.34423828 -239.17773438 -6.34423828 -237.96289062 -4.66455078 C-237.89870533 -0.50417679 -238.84094073 1.18262836 -241.44726562 4.44873047 C-242.52010793 5.53092945 -243.60965953 6.59674685 -244.71289062 7.64794922 C-245.28547607 8.20828857 -245.85806152 8.76862793 -246.44799805 9.34594727 C-252.12911071 14.76084242 -258.341286 19.14140505 -264.96289062 23.33544922 C-264.63289063 23.99544922 -264.30289063 24.65544922 -263.96289062 25.33544922 C-261.74881042 26.09962883 -261.74881042 26.09962883 -259.15039062 26.71044922 C-252.25167599 28.69419978 -252.25167599 28.69419978 -249.96289062 32.33544922 C-249.11388481 36.4861443 -250.08675036 38.90265362 -252.21289062 42.39794922 C-260.47519064 54.86790202 -272.6183912 64.12681927 -286.90039062 68.46044922 C-291.62774108 70.10893084 -291.62774108 70.10893084 -294.31445312 74.10498047 C-294.78685395 76.21001932 -295.18874637 78.33216861 -295.51757812 80.46435547 C-296.11363032 84.30732357 -297.40212489 86.42863406 -299.96289062 89.33544922 C-300.93548828 89.87492187 -300.93548828 89.87492187 -301.92773438 90.42529297 C-306.04144869 92.75367015 -307.67142483 94.30869471 -308.99414062 98.96826172 C-310.44109615 107.86217359 -311.10517955 118.78393437 -307.96289062 127.33544922 C-304.2702432 129.84080066 -301.00017409 130.72482196 -296.58789062 131.02294922 C-295.27691406 131.1215625 -295.27691406 131.1215625 -293.93945312 131.22216797 C-292.96105469 131.27824219 -292.96105469 131.27824219 -291.96289062 131.33544922 C-291.8159375 130.39185547 -291.66898437 129.44826172 -291.51757812 128.47607422 C-288.97924926 113.9463297 -283.70519357 101.58090408 -271.47851562 92.48779297 C-259.2637629 84.76822098 -245.4339372 82.5038436 -231.25585938 84.98388672 C-217.90815465 88.42750624 -207.29935377 95.32645353 -200.20898438 107.29638672 C-194.73265475 117.77399087 -193.90413159 125.09931672 -192.96289062 137.33544922 C-119.37289062 137.33544922 -45.78289062 137.33544922 30.03710938 137.33544922 C30.69710938 131.72544922 31.35710937 126.11544922 32.03710938 120.33544922 C34.39093748 113.70756481 36.76496599 107.94263741 41.03710938 102.33544922 C41.71773438 101.36607422 42.39835937 100.39669922 43.09960938 99.39794922 C49.97363686 91.36419318 61.69229624 85.94802303 72.03710938 84.33544922 C87.60801874 83.40047545 101.16011651 86.24491491 113.28710938 96.52294922 C122.76046634 105.50630496 128.14274793 117.4204448 128.86132812 130.43701172 C128.83415067 132.34545751 128.83415067 132.34545751 130.03710938 133.33544922 C131.39620103 133.43453018 132.76034988 133.46624632 134.12304688 133.46826172 C134.96689941 133.47027588 135.81075195 133.47229004 136.68017578 133.47436523 C137.58171387 133.46977295 138.48325195 133.46518066 139.41210938 133.46044922 C140.32009277 133.45779053 141.22807617 133.45513184 142.16357422 133.45239258 C152.88988146 133.87400279 152.88988146 133.87400279 163.03710938 131.33544922 C163.75113297 126.93181349 163.97744237 122.47740012 164.26220703 118.02758789 C164.41002945 115.80423273 164.59180059 113.58539376 164.77539062 111.36474609 C165.33387563 103.63605181 165.408576 98.03890641 161.03710938 91.33544922 C160.00940772 87.99340531 159.90321558 84.95570996 159.91210938 81.46044922 C159.90953125 80.45240234 159.90695312 79.44435547 159.90429688 78.40576172 C160.0382737 75.30853284 160.46464217 72.37952084 161.03710938 69.33544922 C132.29602884 52.39626166 102.1171113 43.08501277 68.66210938 42.02294922 C39.9088533 40.37148015 11.60380499 20.14341049 -12.53320312 6.09716797 C-46.59980101 -13.6855394 -78.63166963 -21.90725595 -118.15039062 -21.85205078 C-119.35816162 -21.85114441 -119.35816162 -21.85114441 -120.59033203 -21.85021973 C-149.12938785 -21.79276042 -177.30050602 -19.24524112 -205.62634277 -15.93530273 Z M-256.78320312 -0.03955078 C-257.88985949 1.08043879 -258.99120983 2.20568988 -260.08789062 3.33544922 C-260.93287109 4.19396484 -260.93287109 4.19396484 -261.79492188 5.06982422 C-263.1887533 6.48727991 -264.57640698 7.91080548 -265.96289062 9.33544922 C-261.83611726 9.33544922 -260.13115129 7.13565212 -257.27539062 4.46044922 C-256.76427734 4.00025391 -256.25316406 3.54005859 -255.7265625 3.06591797 C-254.42740699 1.86909914 -253.18986179 0.60616638 -251.96289062 -0.66455078 C-251.96289062 -1.32455078 -251.96289062 -1.98455078 -251.96289062 -2.66455078 C-254.36104 -2.89165283 -254.36104 -2.89165283 -256.78320312 -0.03955078 Z M-291.41210938 36.21826172 C-293.68044953 40.77779684 -293.15644554 44.66675709 -292.71289062 49.64794922 C-292.64714844 50.57929688 -292.58140625 51.51064453 -292.51367188 52.47021484 C-292.34922121 54.76077764 -292.16509245 57.04796161 -291.96289062 59.33544922 C-281.50037164 57.70876782 -270.84810442 49.1088837 -264.15820312 41.20263672 C-263.02773412 39.62508958 -261.98200682 37.98712029 -260.96289062 36.33544922 C-267.9566307 35.01454047 -274.9112362 34.08754297 -282.02539062 33.89794922 C-283.86810547 33.83800781 -283.86810547 33.83800781 -285.74804688 33.77685547 C-289.03901097 34.09214204 -289.03901097 34.09214204 -291.41210938 36.21826172 Z " fill="#000000" transform="translate(327.962890625,187.66455078125)"/>
<path d="M0 0 C1.70625298 -0.0049926 1.70625298 -0.0049926 3.44697571 -0.01008606 C5.8359843 -0.01510982 8.2249998 -0.01749581 10.61401367 -0.01733398 C14.21219813 -0.01951544 17.81007285 -0.03770698 21.40820312 -0.05664062 C64.53549709 -0.16435607 98.14252042 13.65827146 133.86328125 37.48046875 C134.43355042 37.86065155 135.00381958 38.24083435 135.59136963 38.63253784 C151.99839914 49.61558664 151.99839914 49.61558664 156.55078125 54.16796875 C156.86328125 57.04296875 156.86328125 57.04296875 156.55078125 60.16796875 C154.80137401 62.21755454 153.38237571 63.07806295 150.68449593 63.36973763 C148.25029309 63.38038362 145.8410395 63.27814004 143.41040039 63.14477539 C142.47275943 63.10595025 141.53511847 63.06712511 140.56906414 63.02712345 C137.40717266 62.89239808 134.24679889 62.73505848 131.0859375 62.578125 C128.8078631 62.47683869 126.52972334 62.37701347 124.25152588 62.27853394 C118.01223209 62.00491841 111.77397799 61.71198485 105.5357399 61.4153862 C98.96527546 61.10563315 92.39413286 60.81099361 85.82299805 60.51586914 C83.09559335 60.39323907 80.36819249 60.27052386 77.64079285 60.14778137 C76.95537527 60.11695841 76.26995769 60.08613544 75.56376988 60.05437845 C71.31536023 59.86311059 67.06705265 59.6697192 62.81880599 59.47486609 C42.48698002 58.5427986 22.15283707 57.70014731 1.81480318 56.91552812 C-3.90940231 56.69458602 -9.6334637 56.47020418 -15.35743713 56.24333191 C-16.15923395 56.21156402 -16.96103077 56.17979613 -17.78712445 56.14706558 C-21.00742565 56.01939412 -24.22772136 55.89158701 -27.44800293 55.76342142 C-36.18713995 55.41564343 -44.92640809 55.07372452 -53.66647339 54.75003052 C-60.46516835 54.4982097 -67.26320493 54.23340997 -74.0607444 53.95205903 C-77.55253034 53.8080043 -81.04427169 53.6704795 -84.53694916 53.54977036 C-88.33896877 53.41826903 -92.13941382 53.25732647 -95.94018555 53.09350586 C-97.05756072 53.059628 -98.17493589 53.02575014 -99.32617092 52.99084568 C-100.34583478 52.94209765 -101.36549864 52.89334963 -102.4160614 52.84312439 C-103.73836525 52.79202719 -103.73836525 52.79202719 -105.08738232 52.73989773 C-108.20094281 51.9859355 -109.47747536 50.64674896 -111.44921875 48.16796875 C-111.3229019 42.3754387 -107.22124363 39.12251096 -103.44921875 35.16796875 C-102.93359375 34.60078125 -102.41796875 34.03359375 -101.88671875 33.44921875 C-75.11909397 5.07553649 -37.35087181 0.03930042 0 0 Z M-25.01171875 12.41796875 C-26.23246094 12.55219238 -27.45320313 12.68641602 -28.7109375 12.82470703 C-54.22101072 15.77514839 -73.50428307 22.39973715 -92.44921875 40.16796875 C-88.90829212 42.33441476 -85.88731758 42.50247436 -81.77905273 42.67041016 C-81.11648468 42.69996292 -80.45391663 42.72951569 -79.77127075 42.75996399 C-77.5795586 42.85538795 -75.38756923 42.93765195 -73.1953125 43.01953125 C-71.65468037 43.08324839 -70.11407693 43.14766257 -68.57350159 43.21273804 C-65.33476278 43.34764434 -62.09585939 43.4764693 -58.85668945 43.60058594 C-54.7615518 43.75763521 -50.66697675 43.92584402 -46.57245445 44.09811783 C-30.5329932 44.77088636 -14.50656743 45.43793182 1.55078125 45.16796875 C1.65371457 33.78694785 1.34662861 22.52300518 0.55078125 11.16796875 C-8.05746258 10.99187102 -16.45656057 11.47571313 -25.01171875 12.41796875 Z M11.55078125 11.16796875 C11.42219064 22.86971431 11.92772074 34.48558416 12.55078125 46.16796875 C18.16078125 46.16796875 23.77078125 46.16796875 29.55078125 46.16796875 C29.09746463 42.20900364 28.6382768 38.2508634 28.17578125 34.29296875 C28.04945313 33.184375 27.923125 32.07578125 27.79296875 30.93359375 C27.00769771 24.25878994 25.9632946 17.7392265 24.55078125 11.16796875 C20.26078125 11.16796875 15.97078125 11.16796875 11.55078125 11.16796875 Z M35.55078125 11.16796875 C36.09895633 15.65241421 36.65039582 20.13644176 37.20483398 24.62011719 C37.39290188 26.14474683 37.58008498 27.66948589 37.76635742 29.19433594 C38.03460605 31.38896742 38.30605795 33.58318278 38.578125 35.77734375 C38.70162575 36.79631744 38.70162575 36.79631744 38.82762146 37.83587646 C39.22391516 41.00772256 39.67211171 44.09091588 40.55078125 47.16796875 C71.19873499 49.01212346 101.86639012 50.12566232 132.55078125 51.16796875 C105.30860326 29.11833677 70.66903058 12.53558462 35.55078125 11.16796875 Z " fill="#000000" transform="translate(194.44921875,170.83203125)"/>
<path d="M0 0 C7.6793643 6.10858524 13.94346051 13.18766523 15.75 23.1875 C16.61912827 35.17007177 15.39693429 45.74371662 7.57421875 55.33984375 C-0.5719675 63.59069192 -9.18068994 67.25470888 -20.625 67.625 C-30.88336749 67.38882137 -39.84312973 64.48475485 -47.25 57.1875 C-55.00461653 48.1690526 -57.89853105 39.27163479 -57.60546875 27.4375 C-56.49823059 17.31417969 -51.58950944 8.89839017 -44.3828125 1.86328125 C-31.02122538 -8.63510863 -14.29654449 -7.97307289 0 0 Z M-41.84375 16.16015625 C-46.29603398 22.57886566 -47.21523294 28.551435 -46.25 36.1875 C-44.56565528 42.05553967 -41.92134381 46.19976748 -37.25 50.1875 C-36.445625 50.909375 -35.64125 51.63125 -34.8125 52.375 C-28.80606269 56.62345566 -22.40152411 56.99093059 -15.25 56.1875 C-9.38293782 54.51507087 -5.23302445 51.85332864 -1.25 47.1875 C-0.528125 46.383125 0.19375 45.57875 0.9375 44.75 C5.16509067 38.77306147 5.66948373 32.3110792 4.75 25.1875 C1.97246737 16.29939559 -3.68823156 10.85570418 -11.5625 6.25 C-23.73604763 2.74236763 -34.01270368 6.24206221 -41.84375 16.16015625 Z " fill="#000000" transform="translate(106.25,289.8125)"/>
<path d="M0 0 C6.78115395 5.60857941 12.2390986 13.62050302 13.6875 22.375 C14.83756745 34.61223451 13.41610154 44.80797674 5.5 54.75 C-1.11260668 61.66514424 -9.39227662 65.82457923 -18.92578125 66.7109375 C-31.58041594 66.84456617 -40.40919818 63.84390936 -49.875 55.3125 C-56.44405768 48.56865586 -59.39816579 39.45868845 -59.5625 30.1875 C-59.42023262 19.58858005 -55.68968487 11.11520157 -48.4609375 3.3984375 C-35.1079691 -9.10334567 -15.17359042 -10.29114418 0 0 Z M-42.25 13.1875 C-46.79855835 18.91610886 -48.96056193 24.66141997 -48.65625 32.015625 C-47.47763613 40.10520205 -43.85770185 46.48878001 -37.3125 51.375 C-30.34119104 55.81607962 -23.12634645 56.60700599 -15.08203125 54.90234375 C-8.01856928 52.62072257 -3.06312302 48.19419601 0.625 41.8125 C3.63634666 35.20149723 4.1217609 27.90347858 1.91796875 20.9453125 C0.97495663 18.95409169 -0.06874127 17.19080108 -1.3125 15.375 C-1.869375 14.488125 -2.42625 13.60125 -3 12.6875 C-8.21538142 7.47211858 -15.00950759 4.2755436 -22.375 4 C-30.56580377 4.10820084 -36.67047298 7.25705933 -42.25 13.1875 Z " fill="#000000" transform="translate(430.3125,290.625)"/>
<path d="M0 0 C7.86980557 0.06487184 15.50073801 0.79457597 23.28369141 1.94213867 C24.50556152 2.12147949 25.72743164 2.30082031 26.98632812 2.4855957 C58.37677573 7.31521368 58.37677573 7.31521368 67.38916016 17.14135742 C69.99515479 21.47933618 69.24537388 26.84405217 68.08447266 31.61401367 C66.80111326 35.33507689 65.98812813 37.03501419 62.65869141 39.25463867 C47.48396209 39.66318908 33.39825488 37.21666425 21.65869141 27.25463867 C17.78106012 24.17510613 14.25434083 22.00144471 9.59619141 20.25463867 C2.74687011 17.65626185 -1.87713506 13.90585186 -5.34130859 7.25463867 C-5.15995252 3.26480508 -4.37165018 0.47545684 0 0 Z M24.65869141 14.25463867 C31.40032345 21.64868672 38.56111635 26.31094007 48.65869141 27.25463867 C51.68222939 27.38024559 54.63022766 27.35233105 57.65869141 27.25463867 C57.8700367 24.86340917 57.8700367 24.86340917 56.65869141 22.25463867 C49.10933079 16.57210364 34.00624966 13.73117541 24.65869141 14.25463867 Z " fill="#000000" transform="translate(411.34130859375,240.745361328125)"/>
<path d="M0 0 C1.62131836 -0.03673828 1.62131836 -0.03673828 3.27539062 -0.07421875 C9.51686816 -0.09720762 13.54897037 0.00481506 18.1875 4.375 C20.91935917 8.37014665 20.85989698 12.70062584 20.1875 17.375 C18.1824912 21.1776029 16.76063738 22.99290841 13.1875 25.375 C9.07724689 26.50712235 5.05976759 26.54096213 0.8125 26.5625 C-0.45335938 26.57667969 -1.71921875 26.59085937 -3.0234375 26.60546875 C-8.31528734 26.28359335 -12.45974916 25.79894826 -16.1875 21.875 C-19.14546726 17.32428114 -19.48066282 13.74739026 -18.8125 8.375 C-14.17241186 -0.42516717 -9.03768489 0.01066393 0 0 Z M-7.8125 11.375 C-7.8125 12.365 -7.8125 13.355 -7.8125 14.375 C-4.96054778 15.80097611 -2.48788825 15.5070252 0.6875 15.5 C1.8528125 15.50257813 3.018125 15.50515625 4.21875 15.5078125 C7.11680786 15.5798431 7.11680786 15.5798431 9.1875 14.375 C9.1875 13.385 9.1875 12.395 9.1875 11.375 C3.5775 11.375 -2.0325 11.375 -7.8125 11.375 Z " fill="#000000" transform="translate(120.8125,230.625)"/>
<path d="M0 0 C1.89878906 -0.02126953 1.89878906 -0.02126953 3.8359375 -0.04296875 C8.83282854 0.26096586 13.06642089 0.91602757 17 4.125 C19.90367373 7.81043204 19.95812351 11.38952722 19.9140625 15.8984375 C19.46966358 19.41759651 17.89073627 21.5333518 15.625 24.1875 C10.98860624 27.27842918 6.26672321 26.55606434 0.8125 26.5625 C-0.26837891 26.58699219 -1.34925781 26.61148437 -2.46289062 26.63671875 C-8.70436816 26.65970762 -12.73647037 26.55768494 -17.375 22.1875 C-20.10685917 18.19235335 -20.04739698 13.86187416 -19.375 9.1875 C-17.3699912 5.3848971 -15.94813738 3.56959159 -12.375 1.1875 C-8.26474689 0.05537765 -4.24726759 0.02153787 0 0 Z M-8.375 12.1875 C-8.375 13.1775 -8.375 14.1675 -8.375 15.1875 C-5.52304778 16.61347611 -3.05038825 16.3195252 0.125 16.3125 C1.2903125 16.31507813 2.455625 16.31765625 3.65625 16.3203125 C6.55430786 16.3923431 6.55430786 16.3923431 8.625 15.1875 C8.625 14.1975 8.625 13.2075 8.625 12.1875 C5.77304778 10.76152389 3.30038825 11.0554748 0.125 11.0625 C-1.0403125 11.05992187 -2.205625 11.05734375 -3.40625 11.0546875 C-6.30430786 10.9826569 -6.30430786 10.9826569 -8.375 12.1875 Z " fill="#000000" transform="translate(249.375,235.8125)"/>
</svg>
