<?xml version="1.0" encoding="UTF-8"?>
<svg version="1.1" xmlns="http://www.w3.org/2000/svg" width="512" height="512">
<path d="M0 0 C1.2207938 0.00232384 2.4415876 0.00464767 3.69937515 0.00704193 C10.83720923 0.0231271 17.9736426 0.07263253 25.11085129 0.16961479 C27.31002328 0.19927087 29.50926373 0.22429223 31.70854568 0.24418831 C63.40703607 0.58023335 87.05382162 11.37317043 114.01953125 27.07641602 C114.86386719 27.56553467 115.70820313 28.05465332 116.578125 28.55859375 C117.32352539 28.99357178 118.06892578 29.4285498 118.83691406 29.87670898 C123.59778232 32.41329708 127.26680771 33.31559395 132.69433594 33.34960938 C133.66396523 33.35985893 133.66396523 33.35985893 134.65318298 33.37031555 C136.05210675 33.38385951 137.45107941 33.39294102 138.85005951 33.39802551 C141.08162617 33.4063801 143.31279617 33.42695413 145.54425049 33.45056152 C150.30027362 33.49868763 155.05633823 33.53156659 159.8125 33.5625 C165.28969622 33.59847249 170.76670388 33.6410724 176.24372101 33.69844055 C178.41069867 33.71808219 180.57752113 33.72674621 182.74456787 33.73474121 C195.87290768 33.83476023 209.13352079 34.77207345 221.8125 38.375 C222.6070459 38.59446289 223.4015918 38.81392578 224.22021484 39.04003906 C248.92090148 46.02881864 276.20995371 60.29332676 291.0625 82.0625 C293.59858996 88.39859445 293.3948264 94.74712715 293.375 101.5 C293.39916992 103.1406543 293.39916992 103.1406543 293.42382812 104.81445312 C293.42848048 112.54201893 292.52582984 118.1915531 288.3125 124.8125 C283.44518583 129.67981417 278.08098436 131.90755972 271.20678711 132.17260742 C270.1781958 132.17107666 269.14960449 132.1695459 268.08984375 132.16796875 C266.36797852 132.19020508 266.36797852 132.19020508 264.61132812 132.21289062 C262.23123975 132.237348 259.85087306 132.24300476 257.47070312 132.22851562 C249.73801408 132.37067648 244.39668783 133.79901805 237.68579102 137.6809082 C229.9068825 141.77777589 218.88150513 141.14255666 210.625 138.8125 C207.69014733 137.86746694 205.66377885 136.79002421 203.08778667 135.02965736 C198.30341436 132.29746629 193.67266567 132.50028269 188.27900696 132.54110718 C187.20343495 132.53345608 186.12786294 132.52580499 185.01969784 132.51792204 C181.42089117 132.49730872 177.82272548 132.50523711 174.22387695 132.51318359 C171.64135651 132.50448786 169.05884123 132.49412106 166.47633362 132.48220825 C160.19199 132.45673687 153.90781738 132.45312422 147.62343083 132.45780878 C142.51212515 132.46137902 137.40087125 132.45786752 132.28957176 132.44935989 C131.5612895 132.44816952 130.83300724 132.44697914 130.08265581 132.44575269 C128.60296732 132.44332909 127.12327883 132.44090082 125.64359035 132.43846793 C111.7722553 132.41672426 97.90101752 132.42103763 84.029677 132.43323763 C71.35724751 132.44356775 58.68512588 132.42108586 46.01275728 132.38304119 C32.98566568 132.34423308 19.95871951 132.32778182 6.93156976 132.33528769 C-0.37604736 132.33910503 -7.68340272 132.33420321 -14.99097252 132.30585861 C-21.86695027 132.27945725 -28.74230406 132.28462016 -35.61828041 132.31068039 C-38.13690017 132.31540455 -40.65556339 132.3099689 -43.1741333 132.29343414 C-59.69575313 131.77559624 -59.69575313 131.77559624 -74.72019672 137.67852211 C-81.45021377 141.8792081 -91.97918979 140.97008078 -99.37890625 139.2734375 C-107.06128817 136.8037638 -107.06128817 136.8037638 -109.73828125 134.5390625 C-113.05794486 132.31022974 -116.61100325 131.96055145 -120.5 131.25 C-134.01258883 128.47808305 -144.51116384 122.370581 -153.05859375 111.3203125 C-163.9102941 94.35527609 -167.69777329 74.69823147 -167.625 54.875 C-167.62435547 54.14253052 -167.62371094 53.41006104 -167.62304688 52.65539551 C-167.50851343 34.47627925 -167.50851343 34.47627925 -160.87109375 27.3515625 C-154.41317027 22.19398022 -145.89406617 21.10967817 -138 19.4375 C-134.12098046 18.60017429 -130.243775 17.75475856 -126.3671875 16.90625 C-125.34660751 16.68564911 -124.32602753 16.46504822 -123.27452087 16.23776245 C-117.1751509 14.88849226 -111.22012903 13.30234794 -105.25714111 11.44322205 C-70.27570541 0.58045282 -36.39218067 -0.12149433 0 0 Z M-109.75 20.75 C-110.78312695 21.00270031 -111.81625389 21.25540062 -112.88068771 21.51575851 C-119.71660412 23.19542107 -126.53150397 24.94418877 -133.33203125 26.76171875 C-134.2014674 26.99214119 -135.07090355 27.22256363 -135.96668625 27.45996857 C-138.39494834 28.11226693 -140.81499211 28.78836105 -143.23364258 29.4753418 C-144.28197848 29.7569398 -144.28197848 29.7569398 -145.35149288 30.04422665 C-150.31664206 31.50469476 -153.2993549 33.50217273 -156.9375 37.0625 C-158.5172509 41.27470644 -158.5172509 41.27470644 -157.9375 51.0625 C-150.3475 51.3925 -142.7575 51.7225 -134.9375 52.0625 C-134.2775 53.3825 -133.6175 54.7025 -132.9375 56.0625 C-133.2675 57.0525 -133.5975 58.0425 -133.9375 59.0625 C-141.8575 59.3925 -149.7775 59.7225 -157.9375 60.0625 C-158.21985945 69.77138405 -158.21985945 69.77138405 -156.36328125 78.38671875 C-156.02490234 79.43537109 -155.68652344 80.48402344 -155.33789062 81.56445312 C-154.97888672 82.61568359 -154.61988281 83.66691406 -154.25 84.75 C-153.91033203 85.81283203 -153.57066406 86.87566406 -153.22070312 87.97070312 C-148.56444014 102.07874482 -142.42813182 112.22986609 -128.9375 119.0625 C-125.55468996 120.4182178 -125.55468996 120.4182178 -122.9375 121.0625 C-123.21464844 120.32644531 -123.49179688 119.59039062 -123.77734375 118.83203125 C-124.13957031 117.85621094 -124.50179687 116.88039063 -124.875 115.875 C-125.23464844 114.91207031 -125.59429687 113.94914062 -125.96484375 112.95703125 C-129.58400361 102.18676035 -128.46167207 91.25322459 -123.8125 81 C-118.37058322 70.82598167 -109.88381567 65.1513332 -99.08203125 61.421875 C-86.85331143 59.37261776 -74.90147757 60.66987569 -64.625 67.875 C-55.09612351 75.65009554 -49.98249029 84.97926032 -48.71484375 97.2109375 C-48.33364332 106.39289579 -51.36873949 114.73539214 -54.9375 123.0625 C25.5825 123.0625 106.1025 123.0625 189.0625 123.0625 C187.75331621 119.03928489 187.75331621 119.03928489 186.2109375 115.10546875 C182.3085304 105.74363353 182.49695087 93.88113778 186.1875 84.5 C191.28340812 74.10945755 198.20611919 66.68937228 209.0625 62.125 C219.77624818 59.07482258 233.29864411 59.67004364 243.0625 65.0625 C252.28330665 70.73006587 257.95552419 78.68950104 261.3671875 88.91015625 C264.09192385 101.26331486 261.72204896 111.94734978 256.0625 123.0625 C258.77144767 123.14394943 261.47791263 123.20320614 264.1875 123.25 C264.94804687 123.27513672 265.70859375 123.30027344 266.4921875 123.32617188 C271.45249044 123.39031372 274.75667469 122.7966666 279.0625 120.0625 C284.57112893 114.10722548 284.27259913 108.96583164 284.3125 101.25 C284.333125 100.26451172 284.35375 99.27902344 284.375 98.26367188 C284.41195449 91.38551733 283.56600309 87.12178078 279.109375 81.67578125 C253.20781913 55.73017512 219.63501356 42.93786332 183.23007202 42.90428162 C182.07813311 42.89934364 180.9261942 42.89440566 179.73934805 42.88931805 C175.90094044 42.87402822 172.06254944 42.86560562 168.22412109 42.85717773 C165.46405681 42.84813044 162.70399851 42.83762446 159.94393921 42.82717896 C154.01274679 42.80549196 148.08155209 42.78731933 142.15034103 42.77157402 C133.57494097 42.74880416 124.999565 42.72067146 116.42418547 42.69125474 C102.50920072 42.64366573 88.59420609 42.60037817 74.67919922 42.55981445 C61.16682161 42.52041518 47.65445276 42.47897843 34.14208984 42.43481445 C33.30835832 42.43209018 32.47462679 42.42936591 31.61563067 42.42655908 C27.43279696 42.41287887 23.24996337 42.39915875 19.06712985 42.38541877 C-15.6010619 42.27159062 -50.26927225 42.16475126 -84.9375 42.0625 C-85.4325 38.5975 -85.4325 38.5975 -85.9375 35.0625 C8.6075 34.5675 8.6075 34.5675 105.0625 34.0625 C85.65404159 14.65404159 55.7138084 9.68388076 29.62890625 8.99609375 C28.59352345 8.96762611 27.55814064 8.93915848 26.4913826 8.90982819 C18.53653506 8.70309834 10.58200345 8.58429662 2.625 8.5 C1.45402897 8.48607334 0.28305794 8.47214668 -0.92339706 8.457798 C-38.38401099 8.06393908 -73.3728836 11.78662811 -109.75 20.75 Z M-114.3828125 81.82421875 C-119.53385664 89.24016924 -121.07064071 97.61711247 -119.51171875 106.484375 C-117.07191515 116.12384442 -111.48866113 122.79692673 -103.046875 127.91015625 C-95.44250526 132.06439527 -86.57564506 132.36623596 -78.25 130 C-68.99650757 126.37906818 -63.09777843 119.94525664 -58.9375 111.0625 C-55.76832632 103.43300781 -56.52984319 94.95664202 -59.5625 87.375 C-63.67755444 79.20326069 -69.20922863 73.94136347 -77.5625 70.140625 C-91.95150909 65.54413598 -105.07361815 70.33257843 -114.3828125 81.82421875 Z M199.0625 79.0625 C192.48762187 87.80568901 191.10015213 96.23304108 192.0625 107.0625 C194.14218759 115.44351645 199.99085773 122.27234387 207.125 126.9375 C214.96686937 131.37375753 222.92534241 132.53506511 231.78125 130.41015625 C240.96962038 127.1063132 247.82273524 120.85426026 252.0625 112.0625 C255.00993295 104.48635191 255.61314435 95.87154643 252.4375 88.25 C247.83096494 79.47181256 242.5651762 73.61327354 233.234375 69.953125 C220.77776466 66.45545609 207.77230462 69.37506425 199.0625 79.0625 Z " fill="#221E1F" transform="translate(192.9375,250.9375)"/>
<path d="M0 0 C0.84559306 -0.00297112 1.69118611 -0.00594224 2.5624032 -0.0090034 C5.41217678 -0.01771504 8.26190847 -0.01920071 11.11169434 -0.02069092 C13.14812816 -0.02531725 15.18456111 -0.03034166 17.22099304 -0.03573608 C22.76422021 -0.04887755 28.30743526 -0.05530812 33.85067558 -0.05974674 C37.30977925 -0.06267388 40.76887958 -0.06677794 44.22798157 -0.07125092 C55.03911432 -0.08492874 65.85023948 -0.09459473 76.66138029 -0.09845281 C89.16345999 -0.10293826 101.66543061 -0.12050757 114.16747713 -0.1494534 C123.81757729 -0.17102495 133.46764665 -0.18115461 143.11777067 -0.18249393 C148.88807073 -0.18354496 154.6582683 -0.18951611 160.42854309 -0.20731354 C165.85231734 -0.22371673 171.27591119 -0.2259877 176.69970131 -0.21717453 C178.69521376 -0.21640005 180.69073561 -0.22080047 182.68622398 -0.23063278 C185.40065412 -0.24322792 188.11443315 -0.23754403 190.82885742 -0.22705078 C191.6270938 -0.23510719 192.42533017 -0.24316359 193.24775553 -0.25146413 C195.44112396 -0.2314949 195.44112396 -0.2314949 198.91442871 0.14044189 C200.91442871 3.14044189 200.91442871 3.14044189 200.66442871 5.76544189 C200.29317871 6.94106689 200.29317871 6.94106689 199.91442871 8.14044189 C196.74858242 9.72336504 193.34311123 9.2809318 189.86682129 9.27415466 C189.02531178 9.27642022 188.18380228 9.27868578 187.31679249 9.28101999 C184.48083458 9.2873792 181.64492423 9.2865294 178.80895996 9.28570557 C176.78237852 9.28869582 174.75579764 9.29209804 172.72921753 9.29588318 C167.21284564 9.30474006 161.69648924 9.30706197 156.18011093 9.30769897 C151.58234015 9.30864654 146.98457301 9.312323 142.38680363 9.31587106 C131.54477314 9.32402172 120.70275097 9.3264547 109.86071777 9.32574463 C98.65786547 9.32514338 87.45506124 9.33570312 76.25222111 9.35148829 C66.64882969 9.36454008 57.04545403 9.36992954 47.44205379 9.36928922 C41.69972483 9.36903357 35.95743858 9.37192137 30.21511841 9.38246727 C24.81763681 9.39210885 19.42023913 9.39225469 14.02275467 9.38495064 C12.03692122 9.38389993 10.05108265 9.38629625 8.06525803 9.3923111 C5.36408357 9.39996555 2.6632037 9.3954301 -0.03796387 9.38768005 C-1.22948201 9.3953954 -1.22948201 9.3953954 -2.44507122 9.40326661 C-7.8572999 9.36871328 -7.8572999 9.36871328 -10.08557129 7.14044189 C-10.21057129 4.01544189 -10.21057129 4.01544189 -10.08557129 1.14044189 C-6.91074864 -0.44696943 -3.48662256 -0.00378471 0 0 Z " fill="#221E20" transform="translate(163.0855712890625,356.85955810546875)"/>
<path d="M0 0 C2.5625 0.4375 2.5625 0.4375 4.1015625 2.4609375 C6.17141362 6.6781208 7.00669333 11.07328512 7.93554688 15.64257812 C8.92698043 20.0604724 9.74105278 22.87964528 13.5625 25.4375 C16.52003491 26.36444423 19.5113234 26.91109892 22.5625 27.4375 C32.24291237 29.10760309 32.24291237 29.10760309 35.5625 33.4375 C35.11328125 35.77734375 35.11328125 35.77734375 33.5625 38.4375 C30.74022268 39.73859395 27.77746506 40.34019841 24.75 41 C16.844771 42.64138558 16.844771 42.64138558 10.5625 47.4375 C9.61211673 50.16805737 8.92943463 52.57216685 8.375 55.375 C5.83557243 67.16442757 5.83557243 67.16442757 3.5625 69.4375 C1.125 69.625 1.125 69.625 -1.4375 69.4375 C-4.34252963 66.53247037 -4.60441949 63.02030221 -5.4375 59.125 C-6.78441435 52.05082017 -6.78441435 52.05082017 -9.4375 45.4375 C-11.369571 44.29089404 -11.369571 44.29089404 -13.75 43.8125 C-14.63171875 43.585625 -15.5134375 43.35875 -16.421875 43.125 C-17.41703125 42.898125 -18.4121875 42.67125 -19.4375 42.4375 C-20.59765625 42.169375 -21.7578125 41.90125 -22.953125 41.625 C-25.24841365 41.099207 -27.54648885 40.58537407 -29.84765625 40.0859375 C-32.4375 39.4375 -32.4375 39.4375 -33.4375 38.4375 C-33.47830783 36.43791636 -33.48004356 34.43704746 -33.4375 32.4375 C-29.09953188 30.36710613 -25.01016459 29.05552464 -20.3125 28 C-14.11283013 26.54632515 -14.11283013 26.54632515 -9.4375 22.4375 C-7.05679413 16.69641727 -5.97934256 10.57506665 -4.96484375 4.46875 C-4.16712799 1.39606706 -3.09401296 0.55533566 0 0 Z M-0.4375 25.4375 C-1.035625 26.345 -1.63375 27.2525 -2.25 28.1875 C-4.37974941 31.35169912 -6.37123561 33.22297572 -9.4375 35.4375 C-8.365 36.18 -7.2925 36.9225 -6.1875 37.6875 C-3.32865898 39.72290202 -0.82954215 41.85409448 1.5625 44.4375 C2.119375 43.53 2.67625 42.6225 3.25 41.6875 C5.4518799 38.59296609 7.50639725 36.64468532 10.5625 34.4375 C9.71365234 33.71433594 9.71365234 33.71433594 8.84765625 32.9765625 C8.11417969 32.34492188 7.38070312 31.71328125 6.625 31.0625 C5.52865234 30.12277344 5.52865234 30.12277344 4.41015625 29.1640625 C2.5625 27.4375 2.5625 27.4375 1.5625 25.4375 C0.9025 25.4375 0.2425 25.4375 -0.4375 25.4375 Z " fill="#221E1F" transform="translate(421.4375,120.5625)"/>
<path d="M0 0 C2.5625 0.4375 2.5625 0.4375 4.10546875 2.4609375 C6.16690651 6.67223931 6.97250835 11.0709722 7.84765625 15.64257812 C8.61242388 19.12325129 9.35961096 21.22306727 11.828125 23.83203125 C14.73338602 25.53783451 17.15102825 26.35398791 20.4375 27.0625 C21.48292969 27.2996875 22.52835937 27.536875 23.60546875 27.78125 C24.58128906 27.9978125 25.55710937 28.214375 26.5625 28.4375 C33.30163043 30.17663043 33.30163043 30.17663043 34.5625 31.4375 C34.60330783 33.43708364 34.60504356 35.43795254 34.5625 37.4375 C28.89695876 39.72550704 23.39360094 41.219066 17.39453125 42.3984375 C13.63474406 43.77789046 12.00061715 45.24822455 9.5625 48.4375 C8.51523909 51.42692144 7.96309311 54.44398089 7.4375 57.5625 C7.15362242 59.1711396 6.85972484 60.77805082 6.5546875 62.3828125 C6.43464355 63.08937988 6.31459961 63.79594727 6.19091797 64.52392578 C5.42224832 66.86457564 4.51268193 67.94744005 2.5625 69.4375 C-0.125 69.125 -0.125 69.125 -2.4375 68.4375 C-4.46216469 62.62197375 -6.21189687 56.77284083 -7.7890625 50.8203125 C-8.28180339 49.00963815 -8.84409161 47.21772517 -9.4375 45.4375 C-15.94333276 42.79105956 -22.59984881 41.53105491 -29.49609375 40.28125 C-32.4375 39.4375 -32.4375 39.4375 -34.4375 36.4375 C-34.0625 33.75 -34.0625 33.75 -33.4375 31.4375 C-32.43589844 31.18355469 -31.43429687 30.92960937 -30.40234375 30.66796875 C-29.05982073 30.32060265 -27.71737701 29.97292995 -26.375 29.625 C-25.71822266 29.45935547 -25.06144531 29.29371094 -24.38476562 29.12304688 C-16.45053617 27.11992289 -16.45053617 27.11992289 -9.62890625 22.8203125 C-7.79520894 19.15291788 -7.14421013 15.3199898 -6.375 11.3125 C-6.05762204 9.68354808 -5.73369844 8.05585391 -5.40234375 6.4296875 C-5.2643335 5.71151855 -5.12632324 4.99334961 -4.98413086 4.25341797 C-4.10250233 1.32463147 -2.96146694 0.53154535 0 0 Z M-0.4375 25.4375 C-1.91375203 26.89376572 -1.91375203 26.89376572 -3.375 28.75 C-5.30213171 31.10100211 -7.25469293 33.31985135 -9.4375 35.4375 C-8.95539063 35.75203125 -8.47328125 36.0665625 -7.9765625 36.390625 C-1.70287786 40.64136643 -1.70287786 40.64136643 -0.4375 44.4375 C0.2225 44.4375 0.8825 44.4375 1.5625 44.4375 C2.160625 43.53 2.75875 42.6225 3.375 41.6875 C5.50474941 38.52330088 7.49623561 36.65202428 10.5625 34.4375 C9.71365234 33.71433594 9.71365234 33.71433594 8.84765625 32.9765625 C8.11417969 32.34492188 7.38070312 31.71328125 6.625 31.0625 C5.52865234 30.12277344 5.52865234 30.12277344 4.41015625 29.1640625 C2.5625 27.4375 2.5625 27.4375 1.5625 25.4375 C0.9025 25.4375 0.2425 25.4375 -0.4375 25.4375 Z " fill="#221E1F" transform="translate(309.4375,156.5625)"/>
<path d="M0 0 C1.5118144 -0.0114617 3.02359021 -0.03182053 4.53515625 -0.06152344 C15.80470014 -0.28278573 25.2337863 0.46122562 34.28637695 7.92016602 C35.01985352 8.51055664 35.75333008 9.10094727 36.5090332 9.70922852 C38.89761324 11.91825698 39.19508541 12.95686538 39.47387695 16.23266602 C39.22387695 19.29516602 39.22387695 19.29516602 38.03100586 20.86254883 C30.69976512 26.67445381 19.00660504 27.53106345 9.97631836 29.16040039 C7.82884919 29.5487882 5.68460318 29.95228673 3.5402832 30.35766602 C-12.08948391 33.24986741 -12.08948391 33.24986741 -17.08862305 30.42016602 C-19.77612305 28.29516602 -19.77612305 28.29516602 -20.77612305 26.29516602 C-21.0673764 23.03111983 -21.05399791 19.75820428 -21.08862305 16.48266602 C-21.11762695 15.57967773 -21.14663086 14.67668945 -21.17651367 13.74633789 C-21.21749908 9.45548091 -21.17989742 6.9727149 -18.9440918 3.22094727 C-13.85257013 -1.3017918 -6.44340245 0.03395276 0 0 Z M-11.77612305 9.29516602 C-13.01989698 11.78271388 -12.90918539 13.52171903 -12.90112305 16.29516602 C-12.90370117 17.18204102 -12.9062793 18.06891602 -12.90893555 18.98266602 C-12.92740206 21.32193567 -12.92740206 21.32193567 -11.77612305 23.29516602 C-2.53254548 22.31677787 6.50837704 20.72936001 15.59887695 18.79516602 C16.62762939 18.58158447 17.65638184 18.36800293 18.71630859 18.14794922 C19.67529053 17.93871826 20.63427246 17.7294873 21.62231445 17.51391602 C22.48518066 17.32764648 23.34804687 17.14137695 24.23706055 16.94946289 C24.89270996 16.73354492 25.54835937 16.51762695 26.22387695 16.29516602 C26.55387695 15.63516602 26.88387695 14.97516602 27.22387695 14.29516602 C19.5478215 8.44881432 11.87359147 8.69420603 2.66137695 8.98266602 C1.25712008 9.00779704 -0.14718045 9.0306017 -1.55151367 9.05102539 C-4.96084771 9.10960501 -8.36790871 9.19159709 -11.77612305 9.29516602 Z " fill="#221E1F" transform="translate(48.776123046875,229.704833984375)"/>
<path d="M0 0 C5.26475974 3.79552446 9.5319764 8.38953294 10.6875 14.9375 C10.76062428 21.3202046 9.95386765 25.96007107 5.6875 30.9375 C0.53279812 35.69568635 -4.02183095 37.43504693 -10.97265625 37.25 C-16.32313599 36.53541172 -20.59650018 34.0524998 -24.1875 30.0625 C-27.74915808 24.82476752 -29.05039267 20.26229435 -28.3125 13.9375 C-25.99321098 7.49724251 -23.50220898 3.03235449 -17.3125 -0.0625 C-11.70864002 -1.93045333 -5.60508879 -1.79785867 0 0 Z M-18.3125 12.9375 C-19.6434316 16.33719811 -19.6434316 16.33719811 -19.3125 19.9375 C-17.33311533 23.68419241 -15.84233947 25.58427369 -12.3125 27.9375 C-9.19527596 28.16138902 -6.31981112 27.77497905 -3.3125 26.9375 C-0.41759481 24.40445796 0.48523596 22.58474492 1.625 18.9375 C1.7017585 15.25309193 0.94361886 13.81599647 -1.3125 10.9375 C-3.78511524 8.37657707 -5.11934849 7.96611504 -8.6875 7.4375 C-13.37302555 8.08377939 -15.17623357 9.42786852 -18.3125 12.9375 Z " fill="#221E1F" transform="translate(113.3125,333.0625)"/>
<path d="M0 0 C5.35224142 3.14481982 8.59463027 7.15498457 10.57421875 13.09375 C11.30633618 19.85083386 10.78785162 25.58173026 6.57421875 31.09375 C1.23426779 35.97252338 -3.61312361 37.47184997 -10.79296875 37.3671875 C-15.75575868 36.85176421 -19.61628745 35.07429047 -22.99609375 31.375 C-27.50299748 25.2971184 -28.33554534 19.57630409 -27.42578125 12.09375 C-25.36552982 6.93029829 -22.07211357 3.15054758 -17.42578125 0.09375 C-11.91953052 -1.74166691 -5.48828945 -2.05037545 0 0 Z M-17.42578125 12.09375 C-18.95793013 15.15804776 -18.65516673 17.7103142 -18.42578125 21.09375 C-17.15579806 23.95121217 -16.14198095 25.57512263 -13.61328125 27.40625 C-10.60338133 28.35221855 -8.57380089 28.53447275 -5.42578125 28.09375 C-2.50094258 26.26827064 0.0085108 24.22516589 1.57421875 21.09375 C1.96869423 16.91230989 2.02457061 14.78428952 -0.30078125 11.21875 C-3.22616982 8.29336143 -3.99918688 8.12871675 -8.23828125 7.78125 C-12.4306602 7.81936254 -14.46824988 9.04659647 -17.42578125 12.09375 Z " fill="#221E1F" transform="translate(424.42578125,332.90625)"/>
<path d="M0 0 C1.66192383 -0.00386719 1.66192383 -0.00386719 3.35742188 -0.0078125 C4.51951172 -0.00007813 5.68160156 0.00765625 6.87890625 0.015625 C8.03712891 0.00789063 9.19535156 0.00015625 10.38867188 -0.0078125 C11.49791016 -0.00523437 12.60714844 -0.00265625 13.75 0 C15.27838501 0.00338379 15.27838501 0.00338379 16.83764648 0.00683594 C19.44140625 0.265625 19.44140625 0.265625 22.44140625 2.265625 C22.75390625 4.765625 22.75390625 4.765625 22.44140625 7.265625 C19.7565346 9.95049665 18.37663644 9.52331949 14.62890625 9.53125 C13.47132813 9.53382813 12.31375 9.53640625 11.12109375 9.5390625 C9.90679687 9.53132813 8.6925 9.52359375 7.44140625 9.515625 C6.22710937 9.52335937 5.0128125 9.53109375 3.76171875 9.5390625 C2.02535156 9.53519531 2.02535156 9.53519531 0.25390625 9.53125 C-1.34517578 9.52786621 -1.34517578 9.52786621 -2.9765625 9.52441406 C-5.55859375 9.265625 -5.55859375 9.265625 -7.55859375 7.265625 C-7.80859375 4.765625 -7.80859375 4.765625 -7.55859375 2.265625 C-4.91752777 -0.37544098 -3.68076921 0.00815812 0 0 Z " fill="#221E1F" transform="translate(206.55859375,301.734375)"/>
</svg>
