<?xml version="1.0" encoding="UTF-8"?>
<svg version="1.1" xmlns="http://www.w3.org/2000/svg" width="512" height="512">
<path d="M0 0 C1.3580777 -0.0098568 1.3580777 -0.0098568 2.74359131 -0.01991272 C5.72066355 -0.03951282 8.69768546 -0.05128348 11.67480469 -0.0612793 C12.70163109 -0.06535482 13.72845749 -0.06943035 14.78639984 -0.07362938 C20.22999363 -0.09444161 25.67356263 -0.10875977 31.1171875 -0.11816406 C36.6843119 -0.12917067 42.25103026 -0.16351793 47.81801224 -0.20333576 C52.14573809 -0.22974198 56.47337106 -0.23787733 60.80117035 -0.24144554 C62.85007189 -0.24625601 64.8989709 -0.25770707 66.94779205 -0.27648354 C100.89451541 -0.56805956 125.46103659 10.37428171 153.29980469 28.7043457 C159.67375911 32.89842678 166.11652302 36.98234827 172.56005859 41.06835938 C173.40487793 41.60436768 174.24969727 42.14037598 175.12011719 42.69262695 C175.99676025 43.23564453 176.87340332 43.77866211 177.77661133 44.33813477 C180.59667969 46.17700195 180.59667969 46.17700195 183.69604492 48.53930664 C192.6381895 55.20688476 200.26656042 56.54356737 211.28933716 56.85122681 C215.81823398 56.98221858 220.33916176 57.25904999 224.86230469 57.5168457 C225.77158218 57.56540207 226.68085968 57.61395844 227.61769104 57.66398621 C257.63244428 59.35205644 305.21705803 63.50623607 326.97167969 86.42700195 C332.49178718 93.12594143 336.67748511 100.73587139 336.7578125 109.54321289 C336.76742004 110.39800232 336.77702759 111.25279175 336.78692627 112.13348389 C336.79117615 113.0501886 336.79542603 113.96689331 336.79980469 114.91137695 C336.80550476 115.86336975 336.81120483 116.81536255 336.81707764 117.79620361 C336.82651623 119.8101694 336.83305709 121.82415055 336.83691406 123.83813477 C336.84660029 126.90188949 336.87762671 129.96496762 336.90917969 133.02856445 C336.91571226 134.98949799 336.92096173 136.9504363 336.92480469 138.91137695 C336.93715149 139.81998474 336.94949829 140.72859253 336.96221924 141.66473389 C336.93400246 149.82013974 335.04199812 156.53507811 329.38964844 162.6340332 C324.24927701 167.05766439 318.27974167 168.89668037 311.54589844 168.56762695 C308.53283865 167.96380736 307.27318573 166.69176102 305.59667969 164.17700195 C304.40416387 161.53643122 304.52798154 160.4330587 305.28417969 157.61450195 C306.79758269 154.80389637 307.82651079 153.74925998 310.59667969 152.17700195 C311.79292969 151.86762695 312.98917969 151.55825195 314.22167969 151.23950195 C317.58614894 150.5293222 317.58614894 150.5293222 318.97167969 148.42700195 C320.358394 143.43483044 320.71803432 138.63231106 320.69433594 133.46606445 C320.68950195 131.60014648 320.68950195 131.60014648 320.68457031 129.6965332 C320.67619141 128.41133789 320.6678125 127.12614258 320.65917969 125.80200195 C320.65241211 123.8394043 320.65241211 123.8394043 320.64550781 121.8371582 C320.63375563 118.61705915 320.61732512 115.39705425 320.59667969 112.17700195 C319.76475098 112.20842285 319.76475098 112.20842285 318.91601562 112.24047852 C316.39308946 112.32383743 313.8704532 112.37572063 311.34667969 112.42700195 C310.47398437 112.46051758 309.60128906 112.4940332 308.70214844 112.52856445 C302.21449799 112.62761255 302.21449799 112.62761255 299.04199219 110.3137207 C297.34024535 107.79789497 296.7448706 106.21491564 296.59667969 103.17700195 C297.66067042 99.36436849 298.22184479 98.42689189 301.59667969 96.17700195 C303.85839844 95.76293945 303.85839844 95.76293945 306.28417969 95.55200195 C307.49654297 95.43985352 307.49654297 95.43985352 308.73339844 95.32543945 C309.34828125 95.27645508 309.96316406 95.2274707 310.59667969 95.17700195 C276.32878157 74.66135243 228.05556054 73.00345415 189.07275391 73.05102539 C187.15749572 73.04962717 185.24223784 73.04772562 183.32698059 73.04536438 C179.23476793 73.04090283 175.14256521 73.0390121 171.05035019 73.03890228 C164.57879893 73.03775359 158.10730359 73.02485863 151.63577271 73.00933838 C150.53993799 73.00676553 149.44410328 73.00419267 148.31506145 73.00154185 C146.07644267 72.99627685 143.83782394 72.99099136 141.59920526 72.98568583 C126.55375733 72.95064509 111.50838289 72.92403527 96.46289062 72.92651367 C86.28133926 72.92810058 76.09998235 72.9121193 65.91849339 72.87580705 C60.53891426 72.85734309 55.15966002 72.84800981 49.780056 72.8602829 C44.7318495 72.87169265 39.68422745 72.86007938 34.63609886 72.83064842 C32.78375621 72.82399462 30.93136027 72.8258972 29.07903862 72.83694649 C26.55197907 72.8507725 24.02690616 72.83397991 21.49996948 72.80950928 C20.76603057 72.82086466 20.03209165 72.83222003 19.27591217 72.84391952 C15.3893925 72.77063254 13.72150264 72.27635836 10.64178658 69.82497025 C8.59667969 67.17700195 8.59667969 67.17700195 7.97167969 64.17700195 C8.60727019 61.12616756 9.37280141 59.3659589 11.63964844 57.20678711 C16.31083487 54.74882 22.28525034 55.69351264 27.40917969 55.86450195 C31.76105469 55.96762695 36.11292969 56.07075195 40.59667969 56.17700195 C40.59667969 42.97700195 40.59667969 29.77700195 40.59667969 16.17700195 C33.94734063 16.25168469 27.29918331 16.3351191 20.65039062 16.43945312 C18.39687609 16.47234763 16.14328616 16.50048501 13.88964844 16.5234375 C0.17496611 16.66680718 -12.95688869 17.37809445 -26.40332031 20.17700195 C-26.50563965 20.8730957 -26.60795898 21.56918945 -26.71337891 22.28637695 C-27.80092987 29.53484084 -29.3459963 36.65623092 -30.96582031 43.80200195 C-31.29876099 45.27854248 -31.29876099 45.27854248 -31.63842773 46.78491211 C-31.85088135 47.71094238 -32.06333496 48.63697266 -32.28222656 49.59106445 C-32.47373291 50.42589355 -32.66523926 51.26072266 -32.86254883 52.12084961 C-33.40332031 54.17700195 -33.40332031 54.17700195 -34.40332031 56.17700195 C-33.75782227 56.1612915 -33.11232422 56.14558105 -32.44726562 56.12939453 C-29.51604002 56.06694393 -26.58495452 56.02797965 -23.65332031 55.98950195 C-22.63753906 55.96436523 -21.62175781 55.93922852 -20.57519531 55.91333008 C-19.59550781 55.90366211 -18.61582031 55.89399414 -17.60644531 55.8840332 C-16.70571289 55.86832275 -15.80498047 55.8526123 -14.87695312 55.83642578 C-11.88034556 56.24900647 -10.55581455 57.07513681 -8.40332031 59.17700195 C-7.29958653 63.15044357 -6.98788449 65.26699967 -8.71582031 69.05200195 C-10.40332031 71.17700195 -10.40332031 71.17700195 -12.40332031 72.17700195 C-16.35558453 72.45014273 -20.31770597 72.40879223 -24.27832031 72.42700195 C-25.36113281 72.44762695 -26.44394531 72.46825195 -27.55957031 72.48950195 C-44.78808549 72.5717383 -56.25795019 67.03637435 -68.40332031 55.17700195 C-69.61955078 53.88149414 -69.61955078 53.88149414 -70.86035156 52.55981445 C-71.63765625 51.73223633 -72.41496094 50.9046582 -73.21582031 50.05200195 C-74.24642578 48.90344727 -74.24642578 48.90344727 -75.29785156 47.73168945 C-77.28913302 45.88737077 -77.28913302 45.88737077 -79.76123047 46.47314453 C-82.21087383 47.12573387 -84.44672447 47.90501352 -86.78222656 48.8840332 C-101.5526009 54.90723941 -115.59334054 58.26761877 -131.41113281 60.16137695 C-132.10999603 60.24631409 -132.80885925 60.33125122 -133.52890015 60.41876221 C-137.03212083 60.8425085 -140.53534549 61.24479027 -144.04541016 61.60766602 C-145.32883301 61.75429687 -146.61225586 61.90092773 -147.93457031 62.05200195 C-149.08505859 62.17317383 -150.23554688 62.2943457 -151.42089844 62.41918945 C-154.90555875 63.30461722 -156.22292159 64.35553757 -158.40332031 67.17700195 C-159.31152396 70.43058878 -159.31152396 70.43058878 -159.65332031 73.92700195 C-159.80285156 75.0974707 -159.95238281 76.26793945 -160.10644531 77.47387695 C-160.20441406 78.3659082 -160.30238281 79.25793945 -160.40332031 80.17700195 C-159.58347656 80.1305957 -158.76363281 80.08418945 -157.91894531 80.03637695 C-156.84128906 80.0002832 -155.76363281 79.96418945 -154.65332031 79.92700195 C-153.58597656 79.8805957 -152.51863281 79.83418945 -151.41894531 79.78637695 C-147.72402864 80.2649931 -146.65851739 81.28124421 -144.40332031 84.17700195 C-143.3209935 87.19205521 -143.29562344 88.75600511 -144.09082031 91.86450195 C-145.65293651 94.61680192 -146.48279773 95.06990849 -149.40332031 96.17700195 C-152.20019531 96.37231445 -152.20019531 96.37231445 -155.15332031 96.30200195 C-156.13816406 96.28395508 -157.12300781 96.2659082 -158.13769531 96.24731445 C-158.88535156 96.22411133 -159.63300781 96.2009082 -160.40332031 96.17700195 C-160.32137809 99.65705643 -160.20863982 103.13549196 -160.09082031 106.61450195 C-160.06826172 107.58838867 -160.04570312 108.56227539 -160.02246094 109.56567383 C-159.74176085 117.19561252 -159.41114463 124.22811118 -153.74926758 129.77905273 C-150.43553883 132.38857702 -147.10894351 133.50643685 -143.03613281 134.6340332 C-142.3565451 134.82672287 -141.6769574 135.01941254 -140.97677612 135.21794128 C-138.83100481 135.82284564 -136.68011765 136.40644207 -134.52832031 136.98950195 C-133.0617825 137.39890772 -131.59563168 137.8097024 -130.12988281 138.22192383 C-126.55869089 139.22303386 -122.98259706 140.20513904 -119.40332031 141.17700195 C-119.34998535 140.51313477 -119.29665039 139.84926758 -119.24169922 139.1652832 C-118.12152179 126.50843311 -113.03309245 116.24063776 -103.71582031 107.42700195 C-92.37223028 98.12789617 -79.76801808 95.11606882 -65.40332031 96.17700195 C-52.38875549 98.12020548 -41.73098468 103.96382868 -33.40332031 114.17700195 C-25.93791409 124.5472355 -22.11368103 136.33021061 -23.40332031 149.17700195 C-23.73332031 150.16700195 -24.06332031 151.15700195 -24.40332031 152.17700195 C47.53667969 152.17700195 119.47667969 152.17700195 193.59667969 152.17700195 C193.26667969 151.18700195 192.93667969 150.19700195 192.59667969 149.17700195 C191.3797977 136.84437107 195.12164171 124.35633191 202.60449219 114.54418945 C211.1141632 104.6112982 221.4747782 97.92105215 234.59667969 96.17700195 C249.41188428 95.18805376 262.42407247 98.68345817 273.84667969 108.36450195 C283.4312826 117.46837243 288.58770321 129.05334109 289.06933594 142.23803711 C289.16016817 150.54756453 288.50367385 157.68960446 284.59667969 165.17700195 C284.149375 166.04711914 283.70207031 166.91723633 283.24121094 167.8137207 C276.85091492 179.27513635 267.81840367 186.19703124 255.47167969 190.55200195 C242.49413897 194.18571336 228.71716218 193.30159738 216.85058594 186.6340332 C209.53273796 181.76660616 202.89513405 176.42313787 199.59667969 168.17700195 C123.69667969 168.17700195 47.79667969 168.17700195 -30.40332031 168.17700195 C-31.06332031 169.82700195 -31.72332031 171.47700195 -32.40332031 173.17700195 C-41.23300882 183.68072062 -51.55788655 190.8405219 -65.45898438 192.40893555 C-80.09798128 193.46794103 -92.81845901 189.93254579 -104.36816406 180.5871582 C-109.77737917 175.55670651 -113.98344226 169.15370238 -116.46801758 162.19506836 C-119.19529 157.94194086 -121.98258998 157.52464386 -126.72753906 156.3605957 C-127.54777054 156.13678726 -128.36800201 155.91297882 -129.21308899 155.68238831 C-131.8335042 154.97023765 -134.46080455 154.29025484 -137.09082031 153.61450195 C-139.70170597 152.93152113 -142.31010643 152.24143237 -144.91499329 151.53590393 C-146.53301325 151.09884706 -148.15465022 150.67488055 -149.78019714 150.26670837 C-157.27811267 148.26375955 -163.54064747 144.72541198 -168.71582031 138.86450195 C-169.35132813 138.16711914 -169.98683594 137.46973633 -170.64160156 136.7512207 C-176.03035675 128.87718596 -175.85763055 121.15200476 -175.83691406 111.89575195 C-175.8414842 110.51387274 -175.84679223 109.13199579 -175.85279846 107.75012207 C-175.86169276 104.86546547 -175.85934821 101.98108628 -175.84936523 99.09643555 C-175.83786905 95.41796059 -175.85811436 91.74044473 -175.88728237 88.06209564 C-175.90571303 85.21199568 -175.90533859 82.36212281 -175.89964485 79.51197815 C-175.89941903 77.50246068 -175.91624615 75.4929643 -175.93345642 73.48352051 C-175.8710922 65.27407221 -175.11515877 59.67539666 -169.76269531 53.1887207 C-169.23160156 52.75172852 -168.70050781 52.31473633 -168.15332031 51.86450195 C-167.63253906 51.41461914 -167.11175781 50.96473633 -166.57519531 50.5012207 C-160.82130929 46.99300602 -154.78476217 45.69184605 -148.19628906 44.96606445 C-146.63405708 44.77504652 -145.07188462 44.58354126 -143.50976562 44.39160156 C-142.70591431 44.29603973 -141.90206299 44.20047791 -141.07385254 44.10202026 C-115.19316779 40.9749246 -95.37018374 34.37749646 -72.05712891 22.4675293 C-48.85423572 10.618311 -26.55434106 0.08525744 0 0 Z M56.59667969 16.17700195 C56.59667969 29.37700195 56.59667969 42.57700195 56.59667969 56.17700195 C92.23667969 56.17700195 127.87667969 56.17700195 164.59667969 56.17700195 C161.12759229 53.40173204 157.87700989 50.97570923 154.16699219 48.6027832 C153.13155273 47.93939941 152.09611328 47.27601563 151.02929688 46.5925293 C149.9377832 45.89853027 148.84626953 45.20453125 147.72167969 44.48950195 C146.88231873 43.95501434 146.88231873 43.95501434 146.02600098 43.409729 C114.76884816 23.06787669 114.76884816 23.06787669 78.66699219 16.0793457 C77.50441895 16.08184326 76.3418457 16.08434082 75.14404297 16.08691406 C73.68466309 16.09601807 72.2252832 16.10512207 70.72167969 16.11450195 C66.06042969 16.13512695 61.39917969 16.15575195 56.59667969 16.17700195 Z M-50.09863281 29.92700195 C-51.17177734 30.4684082 -51.17177734 30.4684082 -52.26660156 31.02075195 C-53.38615234 31.5930957 -53.38615234 31.5930957 -54.52832031 32.17700195 C-55.28242187 32.55856445 -56.03652344 32.94012695 -56.81347656 33.33325195 C-58.67856797 34.27760203 -60.54118086 35.22684424 -62.40332031 36.17700195 C-60.81664453 40.07985962 -58.2698155 42.51221177 -55.27832031 45.42700195 C-54.36824219 46.3190332 -53.45816406 47.21106445 -52.52050781 48.13012695 C-51.82183594 48.8055957 -51.12316406 49.48106445 -50.40332031 50.17700195 C-48.5203497 47.35254603 -47.98037681 45.94304924 -47.33300781 42.7277832 C-47.15898437 41.88022461 -46.98496094 41.03266602 -46.80566406 40.15942383 C-46.63164062 39.27834961 -46.45761719 38.39727539 -46.27832031 37.48950195 C-46.0965625 36.59682617 -45.91480469 35.70415039 -45.72753906 34.78442383 C-45.28020622 32.58307538 -44.83904391 30.38067246 -44.40332031 28.17700195 C-46.80391848 28.17700195 -47.96404448 28.84276661 -50.09863281 29.92700195 Z M-95.40332031 122.17700195 C-102.73354651 131.20244106 -104.39525112 139.66806117 -103.40332031 151.17700195 C-101.70308426 158.93567405 -97.37083757 165.02277495 -91.40332031 170.17700195 C-82.33344278 175.80704445 -73.20086283 177.98481209 -62.60644531 175.52856445 C-52.97989967 172.03072023 -46.13229524 165.16827666 -41.40332031 156.17700195 C-38.03949101 147.60570612 -38.90893209 139.66383908 -41.95410156 131.2121582 C-46.21498899 122.28841284 -53.24036896 116.57947957 -62.40332031 113.17700195 C-74.53090553 109.51272182 -86.61592505 113.4568143 -95.40332031 122.17700195 Z M214.59667969 125.17700195 C212.84697748 127.74702525 211.63190807 130.25187989 210.59667969 133.17700195 C210.18417969 134.33200195 209.77167969 135.48700195 209.34667969 136.67700195 C207.55462767 145.03991134 208.52785841 152.93210741 212.88574219 160.38012695 C218.47114709 168.20566751 225.13208724 173.83062667 234.59667969 176.17700195 C244.16598252 177.32908018 252.13163176 176.05062792 260.03808594 170.4465332 C266.1819617 165.37555831 271.12669105 159.18189055 272.59667969 151.17700195 C273.44168251 140.17811274 272.40643034 131.60292893 265.40917969 122.86450195 C258.87762912 115.94133808 250.3192301 112.26444142 240.84667969 111.80200195 C229.84878577 112.11860799 221.79137445 117.0578492 214.59667969 125.17700195 Z " fill="#000000" transform="translate(175.4033203125,159.822998046875)"/>
<path d="M0 0 C0.71128241 -0.00779995 1.42256481 -0.01559991 2.15540123 -0.02363622 C4.53333054 -0.04354374 6.90965714 -0.02779833 9.28759766 -0.01205444 C10.99449598 -0.01883118 12.70138699 -0.02773463 14.40826416 -0.03860474 C19.04056983 -0.06139813 23.67231869 -0.05256166 28.30463409 -0.03670931 C33.15232341 -0.02405051 37.99996506 -0.03579037 42.84765625 -0.04364014 C50.98853109 -0.05273676 59.12917913 -0.04074846 67.27001953 -0.01693726 C76.68201816 0.01027405 86.09347524 0.0014599 95.50546074 -0.02606928 C103.58629937 -0.04875899 111.66697497 -0.05196111 119.74783516 -0.03887594 C124.57422894 -0.03108066 129.40036818 -0.03004193 134.22674561 -0.04655838 C138.7643341 -0.06100189 143.30122442 -0.05098386 147.83873749 -0.0220871 C149.50401398 -0.01547561 151.16934923 -0.0173751 152.83460236 -0.02840042 C155.10830144 -0.04206627 157.37976381 -0.02493192 159.65332031 0 C160.92535309 0.00188513 162.19738586 0.00377026 163.50796509 0.00571251 C167.72962895 0.80611596 169.21537906 2.28393407 171.82666016 5.63491821 C172.45166016 9.19741821 172.45166016 9.19741821 171.82666016 12.63491821 C169.10109838 15.4808962 167.43006746 16.54339614 163.50796509 17.13828278 C162.23593231 17.13979088 160.96389954 17.14129898 159.65332031 17.14285278 C158.5863967 17.15221273 158.5863967 17.15221273 157.49791908 17.16176176 C155.12018069 17.1776865 152.74346822 17.16509041 150.36572266 17.15249634 C148.65882775 17.15791772 146.95193752 17.16504047 145.24505615 17.17373657 C140.61281612 17.19197103 135.98093247 17.18490192 131.34868622 17.17222023 C126.5010024 17.1620932 121.65334908 17.17148508 116.80566406 17.17776489 C108.66482057 17.18504216 100.52412223 17.1754515 92.38330078 17.15640259 C82.97136871 17.13463369 73.55978324 17.14168501 64.14785957 17.16370821 C56.06703792 17.18185994 47.98632061 17.18442164 39.90548515 17.17395353 C35.07912388 17.16771736 30.25292552 17.1668864 25.42657471 17.18009949 C20.88907903 17.19165406 16.35203022 17.18363954 11.81458282 17.16052246 C10.14930208 17.15523325 8.48398374 17.1567528 6.81871796 17.16557312 C4.54530427 17.17650443 2.27332243 17.16279626 0 17.14285278 C-1.27203278 17.14134468 -2.54406555 17.13983658 -3.85464478 17.13828278 C-7.77674715 16.54339614 -9.44777807 15.4808962 -12.17333984 12.63491821 C-12.79833984 9.19741821 -12.79833984 9.19741821 -12.17333984 5.63491821 C-8.44731202 0.85341071 -5.97640889 0.00885692 0 0 Z " fill="#000000" transform="translate(180.17333984375,279.3650817871094)"/>
<path d="M0 0 C1.7618565 1.67029546 3.45011686 3.38892234 5.12329102 5.14794922 C5.70788086 5.74220703 6.2924707 6.33646484 6.89477539 6.94873047 C12.20205218 12.39745265 12.20205218 12.39745265 12.56079102 16.52294922 C12.27700587 20.0702636 11.98755208 21.31657668 9.31079102 23.64794922 C5.65777042 24.66267716 3.41336228 25.18286003 -0.05639648 23.49951172 C-3.16620622 21.31249419 -5.79526739 18.79709282 -8.43920898 16.08544922 C-8.93291992 15.59109375 -9.42663086 15.09673828 -9.93530273 14.58740234 C-14.59896501 9.86624286 -14.59896501 9.86624286 -14.93920898 5.27294922 C-14.67895406 1.49925284 -14.41955045 0.18326629 -11.68920898 -2.35205078 C-7.57024992 -4.34051378 -3.4411037 -2.75427551 0 0 Z " fill="#000000" transform="translate(417.689208984375,293.35205078125)"/>
<path d="M0 0 C2.56205842 3.84308764 2.67366765 5.4340304 2 10 C0.00186435 13.00902677 -2.4528395 15.4528395 -5 18 C-5.58652344 18.66902344 -6.17304687 19.33804687 -6.77734375 20.02734375 C-9.67039597 23.235286 -11.42181917 24.82056457 -15.625 26.125 C-19.38528342 25.98573024 -21.07601465 25.32198837 -24 23 C-25.50889469 19.98221063 -25.50026276 18.37677363 -25 15 C-22.9835505 12.02450744 -20.52427401 9.54799839 -18 7 C-16.94039063 5.88431641 -16.94039063 5.88431641 -15.859375 4.74609375 C-10.33571545 -0.97191678 -8.01195733 -2.91343903 0 0 Z " fill="#000000" transform="translate(115,292)"/>
</svg>
