<svg width="193" height="65" viewBox="0 0 193 65" fill="none" xmlns="http://www.w3.org/2000/svg">
<path d="M170.148 58.8847C166.125 58.8847 162.428 57.9502 159.055 56.081C155.723 54.2118 153.061 51.6112 151.07 48.2792C149.12 44.9065 148.145 41.1275 148.145 36.9422C148.145 32.7568 149.12 28.9981 151.07 25.6661C153.061 22.3341 155.723 19.7335 159.055 17.8643C162.428 15.9951 166.125 15.0605 170.148 15.0605C174.171 15.0605 177.848 15.9951 181.18 17.8643C184.553 19.7335 187.194 22.3341 189.104 25.6661C191.054 28.9981 192.03 32.7568 192.03 36.9422C192.03 41.1275 191.054 44.9065 189.104 48.2792C187.154 51.6112 184.512 54.2118 181.18 56.081C177.848 57.9502 174.171 58.8847 170.148 58.8847ZM170.148 49.3763C173.561 49.3763 176.284 48.2385 178.316 45.963C180.388 43.6875 181.424 40.6805 181.424 36.9422C181.424 33.1632 180.388 30.1562 178.316 27.9213C176.284 25.6458 173.561 24.508 170.148 24.508C166.694 24.508 163.931 25.6255 161.859 27.8604C159.827 30.0953 158.811 33.1225 158.811 36.9422C158.811 40.7212 159.827 43.7484 161.859 46.024C163.931 48.2588 166.694 49.3763 170.148 49.3763Z" fill="white"/>
<path d="M124.034 15.6699C128.545 15.6699 132.486 16.5639 135.859 18.3518C139.231 20.1397 141.832 22.659 143.661 25.9098C145.53 29.1199 146.464 32.838 146.464 37.0639C146.464 41.2493 145.53 44.9673 143.661 48.2181C141.832 51.4688 139.211 53.9882 135.798 55.7761C132.425 57.564 128.504 58.4579 124.034 58.4579H108.004V15.6699H124.034ZM123.364 49.4371C127.305 49.4371 130.373 48.3603 132.567 46.2067C134.762 44.053 135.859 41.0055 135.859 37.0639C135.859 33.1224 134.762 30.0545 132.567 27.8602C130.373 25.666 127.305 24.5688 123.364 24.5688H118.427V49.4371H123.364Z" fill="white"/>
<path d="M92.5295 50.8999H76.5601L74.0002 58.4579H63.0898L78.5715 15.6699H90.64L106.122 58.4579H95.0894L92.5295 50.8999ZM89.8476 42.8543L84.5448 27.1898L79.303 42.8543H89.8476Z" fill="white"/>
<path d="M68.5622 29.445C68.5622 31.9237 67.9933 34.1992 66.8556 36.2716C65.7178 38.3033 63.9705 39.949 61.6137 41.2086C59.2569 42.4683 56.3313 43.0981 52.8367 43.0981H46.3758V58.4579H35.9531V15.6699H52.8367C56.25 15.6699 59.1351 16.2591 61.4918 17.4375C63.8486 18.6159 65.6162 20.2413 66.7946 22.3136C67.973 24.386 68.5622 26.7631 68.5622 29.445ZM52.0443 34.8087C54.0354 34.8087 55.5186 34.3414 56.4938 33.4068C57.469 32.4722 57.9567 31.1516 57.9567 29.445C57.9567 27.7383 57.469 26.4177 56.4938 25.4831C55.5186 24.5485 54.0354 24.0812 52.0443 24.0812H46.3758V34.8087H52.0443Z" fill="white"/>
<path d="M16.7007 58.8847C13.5719 58.8847 10.7681 58.3768 8.28942 57.361C5.81072 56.3451 3.81963 54.8416 2.31616 52.8505C0.853322 50.8595 0.0812688 48.462 0 45.6582H11.0932C11.2557 47.243 11.8043 48.462 12.7389 49.3153C13.6735 50.128 14.8925 50.5344 16.396 50.5344C17.9401 50.5344 19.1591 50.189 20.0531 49.4982C20.947 48.7668 21.394 47.7712 21.394 46.5116C21.394 45.4551 21.0283 44.5814 20.2969 43.8907C19.6061 43.1999 18.7325 42.631 17.676 42.184C16.6601 41.737 15.1973 41.2291 13.2874 40.6602C10.5243 39.8069 8.2691 38.9536 6.52182 38.1002C4.77454 37.2469 3.27107 35.9873 2.0114 34.3212C0.751736 32.6552 0.121903 30.4813 0.121903 27.7994C0.121903 23.8173 1.56442 20.7087 4.44947 18.4738C7.33451 16.1983 11.0932 15.0605 15.7255 15.0605C20.4391 15.0605 24.2384 16.1983 27.1235 18.4738C30.0085 20.7087 31.5526 23.8376 31.7558 27.8604H20.4797C20.3985 26.4788 19.8905 25.402 18.9559 24.6299C18.0214 23.8173 16.8226 23.4109 15.3598 23.4109C14.1001 23.4109 13.0843 23.7563 12.3122 24.4471C11.5402 25.0972 11.1541 26.0521 11.1541 27.3118C11.1541 28.6934 11.8043 29.7702 13.1046 30.5422C14.4049 31.3143 16.4366 32.1473 19.1998 33.0413C21.9629 33.9759 24.1978 34.8698 25.9044 35.7231C27.6517 36.5765 29.1552 37.8158 30.4148 39.4412C31.6745 41.0666 32.3043 43.1592 32.3043 45.7192C32.3043 48.1573 31.6745 50.3718 30.4148 52.3629C29.1958 54.354 27.4079 55.9388 25.0511 57.1171C22.6943 58.2955 19.9109 58.8847 16.7007 58.8847Z" fill="white"/>
<path d="M135.469 12.2352C142.061 12.2352 147.405 17.5793 147.405 24.1715C147.405 17.5793 152.749 12.2352 159.341 12.2352C152.749 12.2352 147.405 6.89109 147.405 0.298828C147.405 6.89109 142.061 12.2352 135.469 12.2352Z" fill="#F3DA39"/>
</svg>
