<?xml version="1.0" encoding="UTF-8"?>
<svg version="1.1" xmlns="http://www.w3.org/2000/svg" width="512" height="512">
<path d="M0 0 C0.82985232 -0.00453111 1.65970463 -0.00906223 2.51470399 -0.01373065 C5.27623816 -0.02632035 8.03757373 -0.02475775 10.7991333 -0.02310181 C12.78754426 -0.02909084 14.77595291 -0.03589725 16.76435852 -0.04345703 C22.15556408 -0.06109569 27.54670611 -0.06581179 32.93793774 -0.0670886 C36.31446932 -0.06851308 39.69098491 -0.07278851 43.06751251 -0.07808304 C54.87178059 -0.09658311 66.67600356 -0.10475453 78.48028564 -0.10317993 C89.44098368 -0.10198168 100.4014838 -0.12302188 111.36213183 -0.15466726 C120.80202739 -0.18093929 130.24185881 -0.19154252 139.68179059 -0.19026911 C145.30616798 -0.18976226 150.93036978 -0.19528959 156.55471039 -0.21662521 C161.85719952 -0.23618994 167.15934903 -0.23600919 172.46185112 -0.22159195 C174.3917561 -0.21952446 176.32168336 -0.22407922 178.25155067 -0.23631287 C211.45095769 -0.43287287 235.90289325 10.89175591 263.09307861 28.79476929 C269.46703304 32.98885037 275.90979694 37.07277186 282.35333252 41.15878296 C283.19815186 41.69479126 284.04297119 42.23079956 284.91339111 42.78305054 C285.79003418 43.32606812 286.66667725 43.86908569 287.56988525 44.42855835 C290.38995361 46.26742554 290.38995361 46.26742554 293.48931885 48.62973022 C302.43146342 55.29730834 310.05983435 56.63399095 321.08261108 56.94165039 C325.6115079 57.07264216 330.13243569 57.34947358 334.65557861 57.60726929 C335.56485611 57.65582565 336.47413361 57.70438202 337.41096497 57.75440979 C367.4257182 59.44248002 415.01033196 63.59665965 436.76495361 86.51742554 C442.63236352 93.63783469 446.46837006 101.27518796 446.56695557 110.55160522 C446.5797908 111.60660217 446.59262604 112.66159912 446.60585022 113.74856567 C446.61693062 115.45172943 446.61693062 115.45172943 446.62823486 117.18930054 C446.63630661 118.36325378 446.64437836 119.53720703 446.6526947 120.74673462 C446.66652222 123.23148121 446.67725033 125.71624669 446.68511963 128.20101929 C446.70232518 131.9891483 446.7462244 135.77640288 446.79034424 139.56430054 C446.80047226 141.9809608 446.80898802 144.39762847 446.81573486 146.81430054 C446.83324295 147.94164612 446.85075104 149.0689917 446.86878967 150.23049927 C446.84729134 158.07572395 445.71126019 163.40825555 440.46026611 169.50961304 C434.39299658 174.6022208 429.44910264 176.77639538 421.44464111 176.58773804 C419.38995361 176.26742554 419.38995361 176.26742554 416.88995361 174.51742554 C415.37544275 172.24565924 414.55454299 170.9831502 414.38995361 168.26742554 C415.16207179 165.3895305 415.96664191 163.69073724 418.07745361 161.57992554 C421.04899102 159.89337728 424.10780416 159.17913372 427.38995361 158.26742554 C429.93858633 155.71879282 430.29730767 153.80792734 430.51020813 150.26785278 C430.50798752 149.56613953 430.50576691 148.86442627 430.503479 148.14144897 C430.50336571 146.94065704 430.50336571 146.94065704 430.50325012 145.71560669 C430.49808884 144.86130066 430.49292755 144.00699463 430.48760986 143.12680054 C430.48619492 142.24461853 430.48477997 141.36243652 430.48332214 140.45352173 C430.47773363 137.64145488 430.46518322 134.82946824 430.45245361 132.01742554 C430.44743713 130.10857252 430.44287448 128.19971826 430.43878174 126.29086304 C430.42776795 121.61635306 430.41051119 116.94190289 430.38995361 112.26742554 C429.5580249 112.29884644 429.5580249 112.29884644 428.70928955 112.3309021 C426.18636339 112.41426102 423.66372713 112.46614422 421.13995361 112.51742554 C420.2672583 112.55094116 419.39456299 112.58445679 418.49542236 112.61898804 C412.00777192 112.71803614 412.00777192 112.71803614 408.83526611 110.40414429 C407.13351928 107.88831856 406.53814452 106.30533922 406.38995361 103.26742554 C407.45394435 99.45479207 408.01511871 98.51731547 411.38995361 96.26742554 C413.65167236 95.85336304 413.65167236 95.85336304 416.07745361 95.64242554 C417.28981689 95.5302771 417.28981689 95.5302771 418.52667236 95.41586304 C419.14155518 95.36687866 419.75643799 95.31789429 420.38995361 95.26742554 C399.01871333 83.0180561 373.00847141 79.02959924 348.88995361 76.01742554 C348.2275769 75.93434143 347.5652002 75.85125732 346.88275146 75.76565552 C332.78297947 74.02256869 318.77397971 73.11519512 304.56745911 73.13612366 C302.60884686 73.13295009 302.60884686 73.13295009 300.61066669 73.1297124 C297.77515721 73.12516758 294.93966939 73.12368413 292.10415649 73.12467766 C287.48810488 73.12628819 282.87207437 73.1210311 278.25602722 73.11505127 C271.55609201 73.10698033 264.85616055 73.10200931 258.15622139 73.0987606 C247.56304976 73.09323685 236.96990981 73.07631479 226.37675476 73.05741882 C222.74537378 73.05106414 219.11399271 73.04475551 215.48261166 73.03844166 C214.57543364 73.0368579 213.66825563 73.03527413 212.73358737 73.03364238 C202.43357954 73.01574675 192.13356953 72.99949741 181.83355713 72.98446655 C180.89312264 72.98309068 179.95268815 72.98171481 178.98375564 72.98029725 C163.71617986 72.95832809 148.4486124 72.94759919 133.18102361 72.9400958 C117.48234065 72.93202515 101.7837287 72.90874405 86.08508629 72.87214214 C76.41289437 72.85013489 66.74084847 72.84044699 57.06863277 72.84664247 C50.44679167 72.84981677 43.8250755 72.83848894 37.20327307 72.81574806 C33.38446105 72.8030842 29.56592739 72.79690596 25.74710464 72.8081646 C21.60567509 72.82021774 17.46495247 72.80141384 13.32356262 72.77967834 C12.11977559 72.78812088 10.91598856 72.79656342 9.67572314 72.80526179 C2.78104288 72.73825203 -1.76128038 72.0101173 -7.61004639 68.26742554 C-10.79752265 64.67129847 -12.40445858 61.28122393 -12.76531982 56.43002319 C-12.08286977 46.92508209 -5.06228535 37.70724012 -0.36004639 29.64242554 C0.39316429 28.33939052 1.14577291 27.03600729 1.89776611 25.73226929 C3.72158189 22.57328252 5.55346448 19.41906551 7.38995361 16.26742554 C5.15775539 16.39560446 2.92607157 16.53276118 0.69464111 16.67367554 C-0.54817627 16.74908569 -1.79099365 16.82449585 -3.07147217 16.90219116 C-11.17490696 17.73858819 -16.17121242 20.98419177 -21.31317139 27.18539429 C-25.55711078 32.88006806 -29.52343099 38.76229689 -33.48114014 44.65805054 C-35.94638317 48.32137643 -38.51087635 51.87006593 -41.17254639 55.39242554 C-46.92280493 63.26120039 -49.2452885 70.6602483 -50.61004639 80.26742554 C-49.79020264 80.22101929 -48.97035889 80.17461304 -48.12567139 80.12680054 C-47.04801514 80.09070679 -45.97035889 80.05461304 -44.86004639 80.01742554 C-43.79270264 79.97101929 -42.72535889 79.92461304 -41.62567139 79.87680054 C-37.9299978 80.35551473 -36.86867521 81.37405325 -34.61004639 84.26742554 C-33.67254639 86.70492554 -33.67254639 86.70492554 -33.61004639 89.26742554 C-35.23160267 92.75377155 -36.3745793 94.11044748 -39.61004639 96.26742554 C-42.30926514 96.46273804 -42.30926514 96.46273804 -45.29754639 96.39242554 C-46.29141357 96.37437866 -47.28528076 96.35633179 -48.30926514 96.33773804 C-49.06852295 96.31453491 -49.82778076 96.29133179 -50.61004639 96.26742554 C-50.54066571 101.08765753 -50.45246262 105.90706325 -50.34759521 110.72665405 C-50.31455664 112.36262768 -50.28646069 113.99870953 -50.26361084 115.63485718 C-50.34759994 129.79474442 -50.34759994 129.79474442 -44.98504639 142.64242554 C-37.92005612 147.47636625 -28.81220538 148.22929521 -20.54754639 149.45492554 C-18.81988037 149.72079468 -18.81988037 149.72079468 -17.05731201 149.99203491 C-14.24254635 150.42417736 -11.42689746 150.84913194 -8.61004639 151.26742554 C-8.49789795 150.05957397 -8.38574951 148.85172241 -8.27020264 147.60726929 C-7.06098766 138.04921354 -0.57272554 129.62987373 6.38995361 123.26742554 C18.06760906 114.38826149 29.856218 111.37028136 44.38995361 112.26742554 C58.04356926 114.38465287 69.01963232 120.97286086 77.47198486 131.97836304 C83.78320067 141.4651169 85.33203067 148.63027315 86.38995361 160.26742554 C157.66995361 160.26742554 228.94995361 160.26742554 302.38995361 160.26742554 C302.71995361 156.63742554 303.04995361 153.00742554 303.38995361 149.26742554 C306.69022681 136.6936574 313.9331199 126.89358771 324.38995361 119.26742554 C336.34164839 112.46255886 349.59744864 110.09922416 363.07745361 113.45492554 C375.89836187 117.48700828 386.63879757 124.55576062 393.13995361 136.63461304 C398.96384258 148.90117918 401.22224585 163.14533 396.76495361 176.32992554 C396.0268146 178.00045068 395.23484399 179.64827029 394.38995361 181.26742554 C393.94264893 182.13754272 393.49534424 183.00765991 393.03448486 183.90414429 C386.64418885 195.36555993 377.61167759 202.28745483 365.26495361 206.64242554 C352.28741289 210.27613694 338.51043611 209.39202097 326.64385986 202.72445679 C317.02726008 196.3280274 310.10633704 188.87928825 305.38995361 178.26742554 C305.38995361 177.60742554 305.38995361 176.94742554 305.38995361 176.26742554 C232.12995361 176.26742554 158.86995361 176.26742554 83.38995361 176.26742554 C82.39995361 179.23742554 82.39995361 179.23742554 81.38995361 182.26742554 C75.13272231 193.86522368 65.75952768 202.20253003 53.38995361 206.57992554 C40.05175524 210.36216929 27.05877776 208.97961933 14.60870361 202.91195679 C3.11945085 196.45790365 -4.18520819 186.61039524 -8.61004639 174.26742554 C-8.97084609 171.93818121 -9.30779917 169.60498884 -9.61004639 167.26742554 C-10.71219482 167.15785522 -11.81434326 167.04828491 -12.94989014 166.93539429 C-49.77790696 163.14704241 -49.77790696 163.14704241 -58.61004639 153.26742554 C-63.56207273 146.13511593 -65.71773604 141.08284361 -65.78704834 132.39437866 C-65.79690514 131.36903015 -65.79690514 131.36903015 -65.80696106 130.32296753 C-65.82663686 128.0648689 -65.83834836 125.80683685 -65.84832764 123.54867554 C-65.85240316 122.77297714 -65.85647869 121.99727875 -65.86067772 121.19807434 C-65.88152144 117.08642852 -65.89582637 112.97481584 -65.9052124 108.86312866 C-65.9162294 104.6447305 -65.95057885 100.42686673 -65.9903841 96.20865631 C-66.01671554 92.94152951 -66.02491911 89.67452639 -66.02849388 86.40730286 C-66.03332307 84.85417604 -66.04483047 83.30105335 -66.06353188 81.74803162 C-66.31487414 59.47862642 -55.87851036 45.72466053 -43.16864014 28.39437866 C-41.77833379 26.4970809 -40.39640164 24.59401993 -39.01629639 22.68930054 C-28.54885311 8.42203196 -18.35148738 -0.07471849 0 0 Z M18.69171143 24.14584351 C16.64034222 28.43771067 14.90356487 32.73331432 13.43389893 37.25765991 C11.99095633 41.41776194 9.85956345 44.94046352 7.51495361 48.64242554 C5.18262268 52.2426531 5.18262268 52.2426531 4.38995361 56.26742554 C26.16995361 56.26742554 47.94995361 56.26742554 70.38995361 56.26742554 C70.38995361 43.06742554 70.38995361 29.86742554 70.38995361 16.26742554 C41.68968235 11.77362167 41.68968235 11.77362167 18.69171143 24.14584351 Z M86.38995361 16.26742554 C86.38995361 29.46742554 86.38995361 42.66742554 86.38995361 56.26742554 C109.81995361 56.26742554 133.24995361 56.26742554 157.38995361 56.26742554 C156.58557861 50.40992554 155.78120361 44.55242554 154.95245361 38.51742554 C154.70052246 36.67438843 154.44859131 34.83135132 154.18902588 32.9324646 C153.98664446 31.46596923 153.78410011 29.99949634 153.58135986 28.53305054 C153.42709534 27.39778931 153.42709534 27.39778931 153.26971436 26.23959351 C152.79825061 22.84325635 152.22298609 19.59955544 151.38995361 16.26742554 C129.93995361 16.26742554 108.48995361 16.26742554 86.38995361 16.26742554 Z M167.38995361 16.26742554 C168.07998186 21.4823663 168.77383788 26.69677797 169.47125244 31.91073608 C169.70798438 33.68468418 169.94366812 35.45877247 170.17828369 37.23300171 C170.51561683 39.78261262 170.85671133 42.3316962 171.19854736 44.88070679 C171.30275497 45.67455276 171.40696259 46.46839874 171.514328 47.28630066 C171.93543247 50.40387281 172.39255206 53.27522088 173.38995361 56.26742554 C206.71995361 56.26742554 240.04995361 56.26742554 274.38995361 56.26742554 C270.92086622 53.49215562 267.67028382 51.06613282 263.96026611 48.69320679 C262.92482666 48.029823 261.88938721 47.36643921 260.8225708 46.68295288 C259.73105713 45.98895386 258.63954346 45.29495483 257.51495361 44.57992554 C256.67559265 44.04543793 256.67559265 44.04543793 255.8192749 43.50015259 C224.66488374 23.19069838 224.66488374 23.19069838 188.67901611 16.16976929 C187.4350708 16.17299194 186.19112549 16.1762146 184.90948486 16.17953491 C183.62428955 16.18791382 182.33909424 16.19629272 181.01495361 16.20492554 C179.70655518 16.20943726 178.39815674 16.21394897 177.05010986 16.21859741 C173.83001081 16.2303496 170.61000591 16.2467801 167.38995361 16.26742554 Z M13.59698486 139.15414429 C6.64521556 147.89105928 5.30213702 156.17669778 6.38995361 167.26742554 C8.10628609 175.02870258 12.41504177 181.10681173 18.38995361 186.26742554 C27.45983115 191.89746804 36.59241109 194.07523567 47.18682861 191.61898804 C56.81337426 188.12114381 63.66097868 181.25870024 68.38995361 172.26742554 C71.75378292 163.69612971 70.88434183 155.75426267 67.83917236 147.30258179 C63.57828494 138.37883642 56.55290497 132.66990315 47.38995361 129.26742554 C35.15928592 125.564782 22.23944969 130.05978587 13.59698486 139.15414429 Z M324.38995361 141.26742554 C319.77056097 147.93988157 317.69618082 156.21966108 318.38995361 164.26742554 C320.38075033 174.45562048 325.75490093 182.45338608 334.38995361 188.26742554 C342.48190288 192.87097264 351.06905417 193.71220255 360.12432861 191.64242554 C369.41342391 188.41143587 376.04008981 181.98452371 380.51495361 173.34555054 C383.78061726 165.58959938 383.68117542 155.7462582 380.82745361 147.89242554 C376.44428399 138.60862877 369.76355616 133.26295819 360.38995361 129.26742554 C346.04147518 125.65829906 334.0842535 130.34554205 324.38995361 141.26742554 Z " fill="#000000" transform="translate(65.61004638671875,151.73257446289063)"/>
<path d="M0 0 C0.71128241 -0.00779995 1.42256481 -0.01559991 2.15540123 -0.02363622 C4.53333054 -0.04354374 6.90965714 -0.02779833 9.28759766 -0.01205444 C10.99449598 -0.01883118 12.70138699 -0.02773463 14.40826416 -0.03860474 C19.04056983 -0.06139813 23.67231869 -0.05256166 28.30463409 -0.03670931 C33.15232341 -0.02405051 37.99996506 -0.03579037 42.84765625 -0.04364014 C50.98853109 -0.05273676 59.12917913 -0.04074846 67.27001953 -0.01693726 C76.68201816 0.01027405 86.09347524 0.0014599 95.50546074 -0.02606928 C103.58629937 -0.04875899 111.66697497 -0.05196111 119.74783516 -0.03887594 C124.57422894 -0.03108066 129.40036818 -0.03004193 134.22674561 -0.04655838 C138.7643341 -0.06100189 143.30122442 -0.05098386 147.83873749 -0.0220871 C149.50401398 -0.01547561 151.16934923 -0.0173751 152.83460236 -0.02840042 C155.10830144 -0.04206627 157.37976381 -0.02493192 159.65332031 0 C160.92535309 0.00188513 162.19738586 0.00377026 163.50796509 0.00571251 C167.72962895 0.80611596 169.21537906 2.28393407 171.82666016 5.63491821 C172.45166016 9.19741821 172.45166016 9.19741821 171.82666016 12.63491821 C169.10109838 15.4808962 167.43006746 16.54339614 163.50796509 17.13828278 C162.23593231 17.13979088 160.96389954 17.14129898 159.65332031 17.14285278 C158.5863967 17.15221273 158.5863967 17.15221273 157.49791908 17.16176176 C155.12018069 17.1776865 152.74346822 17.16509041 150.36572266 17.15249634 C148.65882775 17.15791772 146.95193752 17.16504047 145.24505615 17.17373657 C140.61281612 17.19197103 135.98093247 17.18490192 131.34868622 17.17222023 C126.5010024 17.1620932 121.65334908 17.17148508 116.80566406 17.17776489 C108.66482057 17.18504216 100.52412223 17.1754515 92.38330078 17.15640259 C82.97136871 17.13463369 73.55978324 17.14168501 64.14785957 17.16370821 C56.06703792 17.18185994 47.98632061 17.18442164 39.90548515 17.17395353 C35.07912388 17.16771736 30.25292552 17.1668864 25.42657471 17.18009949 C20.88907903 17.19165406 16.35203022 17.18363954 11.81458282 17.16052246 C10.14930208 17.15523325 8.48398374 17.1567528 6.81871796 17.16557312 C4.54530427 17.17650443 2.27332243 17.16279626 0 17.14285278 C-1.27203278 17.14134468 -2.54406555 17.13983658 -3.85464478 17.13828278 C-7.77674715 16.54339614 -9.44777807 15.4808962 -12.17333984 12.63491821 C-12.79833984 9.19741821 -12.79833984 9.19741821 -12.17333984 5.63491821 C-8.44731202 0.85341071 -5.97640889 0.00885692 0 0 Z " fill="#000000" transform="translate(180.17333984375,279.3650817871094)"/>
<path d="M0 0 C1.7618565 1.67029546 3.45011686 3.38892234 5.12329102 5.14794922 C5.70788086 5.74220703 6.2924707 6.33646484 6.89477539 6.94873047 C12.20205218 12.39745265 12.20205218 12.39745265 12.56079102 16.52294922 C12.27700587 20.0702636 11.98755208 21.31657668 9.31079102 23.64794922 C5.65777042 24.66267716 3.41336228 25.18286003 -0.05639648 23.49951172 C-3.16620622 21.31249419 -5.79526739 18.79709282 -8.43920898 16.08544922 C-8.93291992 15.59109375 -9.42663086 15.09673828 -9.93530273 14.58740234 C-14.59896501 9.86624286 -14.59896501 9.86624286 -14.93920898 5.27294922 C-14.67895406 1.49925284 -14.41955045 0.18326629 -11.68920898 -2.35205078 C-7.57024992 -4.34051378 -3.4411037 -2.75427551 0 0 Z " fill="#000000" transform="translate(417.689208984375,301.35205078125)"/>
<path d="M0 0 C2.56205842 3.84308764 2.67366765 5.4340304 2 10 C0.00186435 13.00902677 -2.4528395 15.4528395 -5 18 C-5.58652344 18.66902344 -6.17304687 19.33804687 -6.77734375 20.02734375 C-9.67039597 23.235286 -11.42181917 24.82056457 -15.625 26.125 C-19.38528342 25.98573024 -21.07601465 25.32198837 -24 23 C-25.50889469 19.98221063 -25.50026276 18.37677363 -25 15 C-22.98341522 12.02430783 -20.52195434 9.550451 -18 7 C-17.30519531 6.25621094 -16.61039063 5.51242187 -15.89453125 4.74609375 C-10.4854156 -0.9268812 -7.75320816 -3.37096007 0 0 Z " fill="#000000" transform="translate(115,300)"/>
</svg>
